<?xml version="1.0" encoding="UTF-8" standalone="no"?>
<!DOCTYPE svg PUBLIC "-//W3C//DTD SVG 1.1//EN"
 "http://www.w3.org/Graphics/SVG/1.1/DTD/svg11.dtd">
<!-- Generated by graphviz version 2.43.0 (0)
 -->
<!-- Title: G Pages: 1 -->
<svg width="249pt" height="501pt"
 viewBox="0.00 0.00 249.00 501.00" xmlns="http://www.w3.org/2000/svg" xmlns:xlink="http://www.w3.org/1999/xlink">
<g id="graph0" class="graph" transform="scale(1 1) rotate(0) translate(4 497)">
<title>G</title>
<polygon fill="white" stroke="transparent" points="-4,4 -4,-497 245,-497 245,4 -4,4"/>
<g id="clust1" class="cluster">
<title>cluster_mlir</title>
<polygon fill="none" stroke="black" points="8,-302 8,-377 226,-377 226,-302 8,-302"/>
<text text-anchor="middle" x="117" y="-361.8" font-family="Times,serif" font-size="14.00">Upstream MLIR</text>
</g>
<g id="clust2" class="cluster">
<title>cluster_aie</title>
<polygon fill="none" stroke="black" stroke-width="2" points="46,-147 46,-294 198,-294 198,-147 46,-147"/>
<text text-anchor="middle" x="122" y="-278.8" font-family="Times,serif" font-size="14.00">mlir_aie</text>
</g>
<g id="clust6" class="cluster">
<title>cluster_configuration</title>
<polygon fill="none" stroke="black" points="14,-64 14,-139 152,-139 152,-64 14,-64"/>
<text text-anchor="middle" x="83" y="-123.8" font-family="Times,serif" font-size="14.00">configuration</text>
</g>
<!-- Linalg -->
<g id="node1" class="node">
<title>Linalg</title>
<polygon fill="#beaed4" stroke="black" points="217.5,-346 156.5,-346 156.5,-310 217.5,-310 217.5,-346"/>
<text text-anchor="middle" x="187" y="-324.3" font-family="Times,serif" font-size="14.00">Linalg</text>
</g>
<!-- Affine -->
<g id="node2" class="node">
<title>Affine</title>
<polygon fill="#beaed4" stroke="black" points="142,-346 84,-346 84,-310 142,-310 142,-346"/>
<text text-anchor="middle" x="113" y="-324.3" font-family="Times,serif" font-size="14.00">Affine</text>
</g>
<!-- ADF -->
<g id="node4" class="node">
<title>ADF</title>
<g id="a_node4"><a xlink:href="https://circt.llvm.org/docs/Dialects/FSM/" xlink:title="ADF">
<polygon fill="#f5edbc" stroke="black" points="189,-263 135,-263 135,-227 189,-227 189,-263"/>
<text text-anchor="middle" x="162" y="-241.3" font-family="Times,serif" font-size="14.00">ADF</text>
</a>
</g>
</g>
<!-- Affine&#45;&gt;ADF -->
<!-- AIE -->
<g id="node5" class="node">
<title>AIE</title>
<g id="a_node5"><a xlink:href="https://circt.llvm.org/docs/Dialects/FSM/" xlink:title="AIE">
<polygon fill="#f5edbc" stroke="black" points="108,-191 54,-191 54,-155 108,-155 108,-191"/>
<text text-anchor="middle" x="81" y="-169.3" font-family="Times,serif" font-size="14.00">AIE</text>
</a>
</g>
</g>
<!-- Affine&#45;&gt;AIE -->
<g id="edge1" class="edge">
<title>Affine&#45;&gt;AIE</title>
<path fill="none" stroke="black" stroke-dasharray="5,2" d="M104.24,-302C103.42,-299.32 102.66,-296.61 102,-294 94.06,-262.56 88.1,-225.74 84.59,-201.26"/>
<polygon fill="black" stroke="black" points="88.04,-200.68 83.2,-191.26 81.11,-201.65 88.04,-200.68"/>
</g>
<!-- AIEVec -->
<g id="node6" class="node">
<title>AIEVec</title>
<g id="a_node6"><a xlink:href="https://circt.llvm.org/docs/Dialects/FSM/" xlink:title="AIEVec">
<polygon fill="#f5edbc" stroke="black" points="189.5,-191 122.5,-191 122.5,-155 189.5,-155 189.5,-191"/>
<text text-anchor="middle" x="156" y="-169.3" font-family="Times,serif" font-size="14.00">AIEVec</text>
</a>
</g>
</g>
<!-- Affine&#45;&gt;AIEVec -->
<g id="edge4" class="edge">
<title>Affine&#45;&gt;AIEVec</title>
<path fill="none" stroke="black" d="M113.81,-309.97C115.17,-289.74 118.74,-255.19 128,-227 131.02,-217.81 135.54,-208.3 140.08,-199.92"/>
<polygon fill="black" stroke="black" points="143.24,-201.44 145.12,-191.01 137.15,-197.99 143.24,-201.44"/>
</g>
<!-- SCF -->
<g id="node3" class="node">
<title>SCF</title>
<polygon fill="#beaed4" stroke="black" points="70,-346 16,-346 16,-310 70,-310 70,-346"/>
<text text-anchor="middle" x="43" y="-324.3" font-family="Times,serif" font-size="14.00">SCF</text>
</g>
<!-- ADF&#45;&gt;AIE -->
<g id="edge2" class="edge">
<title>ADF&#45;&gt;AIE</title>
<path fill="none" stroke="black" stroke-dasharray="5,2" d="M141.98,-226.7C131.87,-217.97 119.46,-207.24 108.48,-197.75"/>
<polygon fill="black" stroke="black" points="110.65,-194.99 100.79,-191.1 106.07,-200.29 110.65,-194.99"/>
</g>
<!-- ADFCPPFile -->
<g id="node9" class="node">
<title>ADFCPPFile</title>
<polygon fill="#7fc97f" stroke="black" points="235,-108 173,-108 173,-72 241,-72 241,-102 235,-108"/>
<polyline fill="none" stroke="black" points="235,-108 235,-102 "/>
<polyline fill="none" stroke="black" points="241,-102 235,-102 "/>
<text text-anchor="middle" x="207" y="-86.3" font-family="Times,serif" font-size="14.00">adf.cpp</text>
</g>
<!-- ADF&#45;&gt;ADFCPPFile -->
<g id="edge3" class="edge">
<title>ADF&#45;&gt;ADFCPPFile</title>
<path fill="none" stroke="black" d="M176.67,-226.53C184.06,-216.72 192.42,-203.88 197,-191 205.37,-167.45 207.51,-138.94 207.76,-118.4"/>
<polygon fill="black" stroke="black" points="211.26,-118.17 207.74,-108.17 204.26,-118.18 211.26,-118.17"/>
</g>
<!-- LLFile -->
<g id="node10" class="node">
<title>LLFile</title>
<polygon fill="#7fc97f" stroke="black" points="138,-108 90,-108 90,-72 144,-72 144,-102 138,-108"/>
<polyline fill="none" stroke="black" points="138,-108 138,-102 "/>
<polyline fill="none" stroke="black" points="144,-102 138,-102 "/>
<text text-anchor="middle" x="117" y="-86.3" font-family="Times,serif" font-size="14.00">.ll</text>
</g>
<!-- AIE&#45;&gt;LLFile -->
<g id="edge6" class="edge">
<title>AIE&#45;&gt;LLFile</title>
<path fill="none" stroke="black" d="M88.63,-154.82C93.46,-143.98 99.78,-129.74 105.23,-117.47"/>
<polygon fill="black" stroke="black" points="108.51,-118.71 109.38,-108.15 102.12,-115.87 108.51,-118.71"/>
</g>
<!-- AIEVec&#45;&gt;ADFCPPFile -->
<g id="edge5" class="edge">
<title>AIEVec&#45;&gt;ADFCPPFile</title>
<path fill="none" stroke="black" d="M166.82,-154.82C173.78,-143.76 182.96,-129.18 190.79,-116.75"/>
<polygon fill="black" stroke="black" points="193.83,-118.48 196.2,-108.15 187.91,-114.75 193.83,-118.48"/>
</g>
<!-- AIEVec&#45;&gt;LLFile -->
<g id="edge7" class="edge">
<title>AIEVec&#45;&gt;LLFile</title>
<path fill="none" stroke="black" stroke-dasharray="5,2" d="M147.73,-154.82C142.51,-143.98 135.65,-129.74 129.75,-117.47"/>
<polygon fill="black" stroke="black" points="132.75,-115.64 125.26,-108.15 126.44,-118.68 132.75,-115.64"/>
</g>
<!-- CPPFile -->
<g id="node7" class="node">
<title>CPPFile</title>
<polygon fill="#7fc97f" stroke="black" points="184,-493 136,-493 136,-457 190,-457 190,-487 184,-493"/>
<polyline fill="none" stroke="black" points="184,-493 184,-487 "/>
<polyline fill="none" stroke="black" points="190,-487 184,-487 "/>
<text text-anchor="middle" x="163" y="-471.3" font-family="Times,serif" font-size="14.00">.cpp</text>
</g>
<!-- polygeist -->
<g id="node14" class="node">
<title>polygeist</title>
<polygon fill="white" stroke="black" points="204,-421 122,-421 122,-385 204,-385 204,-421"/>
<text text-anchor="middle" x="163" y="-399.3" font-family="Times,serif" font-size="14.00">polygeist</text>
</g>
<!-- CPPFile&#45;&gt;polygeist -->
<g id="edge11" class="edge">
<title>CPPFile&#45;&gt;polygeist</title>
<path fill="none" stroke="black" d="M163,-456.7C163,-448.98 163,-439.71 163,-431.11"/>
<polygon fill="black" stroke="black" points="166.5,-431.1 163,-421.1 159.5,-431.1 166.5,-431.1"/>
</g>
<!-- Pytorch -->
<g id="node8" class="node">
<title>Pytorch</title>
<polygon fill="#7fc97f" stroke="black" points="84,-493 36,-493 36,-457 90,-457 90,-487 84,-493"/>
<polyline fill="none" stroke="black" points="84,-493 84,-487 "/>
<polyline fill="none" stroke="black" points="90,-487 84,-487 "/>
<text text-anchor="middle" x="63" y="-471.3" font-family="Times,serif" font-size="14.00">.py</text>
</g>
<!-- torch_mlir -->
<g id="node13" class="node">
<title>torch_mlir</title>
<polygon fill="white" stroke="black" points="108,-421 18,-421 18,-385 108,-385 108,-421"/>
<text text-anchor="middle" x="63" y="-399.3" font-family="Times,serif" font-size="14.00">torch_mlir</text>
</g>
<!-- Pytorch&#45;&gt;torch_mlir -->
<g id="edge9" class="edge">
<title>Pytorch&#45;&gt;torch_mlir</title>
<path fill="none" stroke="black" d="M63,-456.7C63,-448.98 63,-439.71 63,-431.11"/>
<polygon fill="black" stroke="black" points="66.5,-431.1 63,-421.1 59.5,-431.1 66.5,-431.1"/>
</g>
<!-- Vitis -->
<g id="node12" class="node">
<title>Vitis</title>
<polygon fill="white" stroke="black" points="234,-36 180,-36 180,0 234,0 234,-36"/>
<text text-anchor="middle" x="207" y="-14.3" font-family="Times,serif" font-size="14.00">Vitis</text>
</g>
<!-- ADFCPPFile&#45;&gt;Vitis -->
<g id="edge8" class="edge">
<title>ADFCPPFile&#45;&gt;Vitis</title>
<path fill="none" stroke="black" d="M207,-71.7C207,-63.98 207,-54.71 207,-46.11"/>
<polygon fill="black" stroke="black" points="210.5,-46.1 207,-36.1 203.5,-46.1 210.5,-46.1"/>
</g>
<!-- Conf -->
<g id="node11" class="node">
<title>Conf</title>
<polygon fill="#7fc97f" stroke="black" points="70,-108 22,-108 22,-72 76,-72 76,-102 70,-108"/>
<polyline fill="none" stroke="black" points="70,-108 70,-102 "/>
<polyline fill="none" stroke="black" points="76,-102 70,-102 "/>
<text text-anchor="middle" x="49" y="-86.3" font-family="Times,serif" font-size="14.00">.cpp</text>
</g>
<!-- torch_mlir&#45;&gt;Affine -->
<g id="edge10" class="edge">
<title>torch_mlir&#45;&gt;Affine</title>
<path fill="none" stroke="black" d="M74.85,-384.7C74.95,-384.55 75.06,-384.4 75.16,-384.24"/>
<polygon fill="black" stroke="black" points="77.36,-387.23 80.12,-377 71.59,-383.27 77.36,-387.23"/>
</g>
<!-- polygeist&#45;&gt;Affine -->
<g id="edge12" class="edge">
<title>polygeist&#45;&gt;Affine</title>
<path fill="none" stroke="black" d="M151.15,-384.7C151.05,-384.55 150.94,-384.4 150.84,-384.24"/>
<polygon fill="black" stroke="black" points="154.41,-383.27 145.88,-377 148.64,-387.23 154.41,-383.27"/>
</g>
</g>
</svg>
