<?xml version="1.0" encoding="UTF-8" standalone="no"?>
<!DOCTYPE svg PUBLIC "-//W3C//DTD SVG 1.1//EN"
 "http://www.w3.org/Graphics/SVG/1.1/DTD/svg11.dtd">
<!-- Generated by graphviz version 2.43.0 (0)
 -->
<!-- Title: aiecc Pages: 1 -->
<svg width="1768pt" height="44pt"
 viewBox="0.00 0.00 1768.00 44.00" xmlns="http://www.w3.org/2000/svg" xmlns:xlink="http://www.w3.org/1999/xlink">
<g id="graph0" class="graph" transform="scale(1 1) rotate(0) translate(4 40)">
<title>aiecc</title>
<polygon fill="white" stroke="transparent" points="-4,4 -4,-40 1764,-40 1764,4 -4,4"/>
<!-- n0 -->
<g id="node1" class="node">
<title>n0</title>
<polygon fill="none" stroke="black" points="99,-36 0,-36 0,0 99,0 99,-36"/>
<text text-anchor="middle" x="49.5" y="-14.3" font-family="monospace" font-size="14.00">input.mlir</text>
</g>
<!-- n1 -->
<g id="node2" class="node">
<title>n1</title>
<polygon fill="none" stroke="black" points="242,-36 135,-36 135,0 242,0 242,-36"/>
<text text-anchor="middle" x="188.5" y="-14.3" font-family="monospace" font-size="14.00">placed.mlir</text>
</g>
<!-- n0&#45;&gt;n1 -->
<g id="edge1" class="edge">
<title>n0&#45;&gt;n1</title>
<path fill="none" stroke="black" d="M99.19,-18C107.39,-18 116,-18 124.51,-18"/>
<polygon fill="black" stroke="black" points="124.79,-21.5 134.79,-18 124.79,-14.5 124.79,-21.5"/>
</g>
<!-- n2 -->
<g id="node3" class="node">
<title>n2</title>
<polygon fill="none" stroke="black" points="385,-36 278,-36 278,0 385,0 385,-36"/>
<text text-anchor="middle" x="331.5" y="-14.3" font-family="monospace" font-size="14.00">traced.mlir</text>
</g>
<!-- n1&#45;&gt;n2 -->
<g id="edge2" class="edge">
<title>n1&#45;&gt;n2</title>
<path fill="none" stroke="black" d="M242,-18C250.44,-18 259.26,-18 267.9,-18"/>
<polygon fill="black" stroke="black" points="267.95,-21.5 277.95,-18 267.95,-14.5 267.95,-21.5"/>
</g>
<!-- n3 -->
<g id="node4" class="node">
<title>n3</title>
<polygon fill="none" stroke="black" points="644,-36 421,-36 421,0 644,0 644,-36"/>
<text text-anchor="middle" x="532.5" y="-14.3" font-family="monospace" font-size="14.00">input_with_addresses.mlir</text>
</g>
<!-- n2&#45;&gt;n3 -->
<g id="edge3" class="edge">
<title>n2&#45;&gt;n3</title>
<path fill="none" stroke="black" d="M385.05,-18C393.16,-18 401.82,-18 410.71,-18"/>
<polygon fill="black" stroke="black" points="410.84,-21.5 420.84,-18 410.84,-14.5 410.84,-21.5"/>
</g>
<!-- n4 -->
<g id="node5" class="node">
<title>n4</title>
<polygon fill="none" stroke="black" points="853,-36 680,-36 680,0 853,0 853,-36"/>
<text text-anchor="middle" x="766.5" y="-14.3" font-family="monospace" font-size="14.00">input_physical.mlir</text>
</g>
<!-- n3&#45;&gt;n4 -->
<g id="edge4" class="edge">
<title>n3&#45;&gt;n4</title>
<path fill="none" stroke="black" d="M644.06,-18C652.61,-18 661.2,-18 669.63,-18"/>
<polygon fill="black" stroke="black" points="669.84,-21.5 679.84,-18 669.84,-14.5 669.84,-21.5"/>
</g>
<!-- n5 -->
<g id="node6" class="node">
<title>n5</title>
<polygon fill="none" stroke="black" points="1038,-36 889,-36 889,0 1038,0 1038,-36"/>
<text text-anchor="middle" x="963.5" y="-14.3" font-family="monospace" font-size="14.00">npu_lowered.mlir</text>
</g>
<!-- n4&#45;&gt;n5 -->
<g id="edge5" class="edge">
<title>n4&#45;&gt;n5</title>
<path fill="none" stroke="black" d="M853.03,-18C861.54,-18 870.18,-18 878.67,-18"/>
<polygon fill="black" stroke="black" points="878.94,-21.5 888.94,-18 878.94,-14.5 878.94,-21.5"/>
</g>
<!-- n6 -->
<g id="node7" class="node">
<title>n6</title>
<polygon fill="none" stroke="black" points="1223,-36 1074,-36 1074,0 1223,0 1223,-36"/>
<text text-anchor="middle" x="1148.5" y="-14.3" font-family="monospace" font-size="14.00">npu_seq_{0}.mlir</text>
</g>
<!-- n5&#45;&gt;n6 -->
<g id="edge6" class="edge">
<title>n5&#45;&gt;n6</title>
<path fill="none" stroke="black" d="M1038.14,-18C1046.47,-18 1055.01,-18 1063.46,-18"/>
<polygon fill="black" stroke="black" points="1063.71,-21.5 1073.71,-18 1063.71,-14.5 1063.71,-21.5"/>
</g>
<!-- n7 -->
<g id="node8" class="node">
<title>n7</title>
<polygon fill="none" stroke="black" points="1391,-36 1259,-36 1259,0 1391,0 1391,-36"/>
<text text-anchor="middle" x="1325" y="-14.3" font-family="monospace" font-size="14.00">perSeqMatching</text>
</g>
<!-- n6&#45;&gt;n7 -->
<g id="edge7" class="edge">
<title>n6&#45;&gt;n7</title>
<path fill="none" stroke="black" d="M1223.25,-18C1231.65,-18 1240.22,-18 1248.64,-18"/>
<polygon fill="black" stroke="black" points="1248.81,-21.5 1258.81,-18 1248.81,-14.5 1248.81,-21.5"/>
</g>
<!-- n8 -->
<g id="node9" class="node">
<title>n8</title>
<polygon fill="none" stroke="black" points="1600,-36 1427,-36 1427,0 1600,0 1600,-36"/>
<text text-anchor="middle" x="1513.5" y="-14.3" font-family="monospace" font-size="14.00">npu_program_{0}.bin</text>
</g>
<!-- n7&#45;&gt;n8 -->
<g id="edge8" class="edge">
<title>n7&#45;&gt;n8</title>
<path fill="none" stroke="black" d="M1391.23,-18C1399.53,-18 1408.17,-18 1416.82,-18"/>
<polygon fill="black" stroke="black" points="1416.99,-21.5 1426.99,-18 1416.99,-14.5 1416.99,-21.5"/>
</g>
<!-- n9 -->
<g id="node10" class="node">
<title>n9</title>
<polygon fill="lightblue" stroke="black" points="1760,-36 1636,-36 1636,0 1760,0 1760,-36"/>
<text text-anchor="middle" x="1698" y="-14.3" font-family="monospace" font-size="14.00">insts_{0}.bin</text>
</g>
<!-- n8&#45;&gt;n9 -->
<g id="edge9" class="edge">
<title>n8&#45;&gt;n9</title>
<path fill="none" stroke="black" d="M1600.14,-18C1608.7,-18 1617.32,-18 1625.71,-18"/>
<polygon fill="black" stroke="black" points="1625.81,-21.5 1635.81,-18 1625.81,-14.5 1625.81,-21.5"/>
</g>
</g>
</svg>
