<?xml version="1.0" encoding="UTF-8" standalone="no"?>
<!DOCTYPE svg PUBLIC "-//W3C//DTD SVG 1.1//EN"
 "http://www.w3.org/Graphics/SVG/1.1/DTD/svg11.dtd">
<!-- Generated by graphviz version 2.43.0 (0)
 -->
<!-- Title: aiecc Pages: 1 -->
<svg width="1875pt" height="98pt"
 viewBox="0.00 0.00 1875.00 98.00" xmlns="http://www.w3.org/2000/svg" xmlns:xlink="http://www.w3.org/1999/xlink">
<g id="graph0" class="graph" transform="scale(1 1) rotate(0) translate(4 94)">
<title>aiecc</title>
<polygon fill="white" stroke="transparent" points="-4,4 -4,-94 1871,-94 1871,4 -4,4"/>
<!-- n0 -->
<g id="node1" class="node">
<title>n0</title>
<polygon fill="none" stroke="black" points="99,-63 0,-63 0,-27 99,-27 99,-63"/>
<text text-anchor="middle" x="49.5" y="-41.3" font-family="monospace" font-size="14.00">input.mlir</text>
</g>
<!-- n1 -->
<g id="node2" class="node">
<title>n1</title>
<polygon fill="none" stroke="black" points="242,-63 135,-63 135,-27 242,-27 242,-63"/>
<text text-anchor="middle" x="188.5" y="-41.3" font-family="monospace" font-size="14.00">placed.mlir</text>
</g>
<!-- n0&#45;&gt;n1 -->
<g id="edge1" class="edge">
<title>n0&#45;&gt;n1</title>
<path fill="none" stroke="black" d="M99.19,-45C107.39,-45 116,-45 124.51,-45"/>
<polygon fill="black" stroke="black" points="124.79,-48.5 134.79,-45 124.79,-41.5 124.79,-48.5"/>
</g>
<!-- n2 -->
<g id="node3" class="node">
<title>n2</title>
<polygon fill="none" stroke="black" points="385,-63 278,-63 278,-27 385,-27 385,-63"/>
<text text-anchor="middle" x="331.5" y="-41.3" font-family="monospace" font-size="14.00">traced.mlir</text>
</g>
<!-- n1&#45;&gt;n2 -->
<g id="edge2" class="edge">
<title>n1&#45;&gt;n2</title>
<path fill="none" stroke="black" d="M242,-45C250.44,-45 259.26,-45 267.9,-45"/>
<polygon fill="black" stroke="black" points="267.95,-48.5 277.95,-45 267.95,-41.5 267.95,-48.5"/>
</g>
<!-- n3 -->
<g id="node4" class="node">
<title>n3</title>
<polygon fill="none" stroke="black" points="685,-63 421,-63 421,-27 685,-27 685,-63"/>
<text text-anchor="middle" x="553" y="-41.3" font-family="monospace" font-size="14.00">work/input_with_addresses.mlir</text>
</g>
<!-- n2&#45;&gt;n3 -->
<g id="edge3" class="edge">
<title>n2&#45;&gt;n3</title>
<path fill="none" stroke="black" d="M385.08,-45C393.09,-45 401.67,-45 410.56,-45"/>
<polygon fill="black" stroke="black" points="410.71,-48.5 420.71,-45 410.71,-41.5 410.71,-48.5"/>
</g>
<!-- n4 -->
<g id="node5" class="node">
<title>n4</title>
<polygon fill="lightblue" stroke="black" points="877.5,-90 737.5,-90 737.5,-54 877.5,-54 877.5,-90"/>
<text text-anchor="middle" x="807.5" y="-68.3" font-family="monospace" font-size="14.00">work/params.txt</text>
</g>
<!-- n3&#45;&gt;n4 -->
<g id="edge4" class="edge">
<title>n3&#45;&gt;n4</title>
<path fill="none" stroke="black" d="M685.06,-59.01C699.41,-60.55 713.68,-62.07 727.13,-63.51"/>
<polygon fill="black" stroke="black" points="726.92,-67.01 737.23,-64.59 727.66,-60.05 726.92,-67.01"/>
</g>
<!-- n5 -->
<g id="node6" class="node">
<title>n5</title>
<polygon fill="none" stroke="black" points="894,-36 721,-36 721,0 894,0 894,-36"/>
<text text-anchor="middle" x="807.5" y="-14.3" font-family="monospace" font-size="14.00">input_physical.mlir</text>
</g>
<!-- n3&#45;&gt;n5 -->
<g id="edge5" class="edge">
<title>n3&#45;&gt;n5</title>
<path fill="none" stroke="black" d="M685.06,-30.99C693.68,-30.06 702.27,-29.15 710.67,-28.25"/>
<polygon fill="black" stroke="black" points="711.25,-31.71 720.82,-27.16 710.5,-24.75 711.25,-31.71"/>
</g>
<!-- n6 -->
<g id="node7" class="node">
<title>n6</title>
<polygon fill="none" stroke="black" points="1145,-36 930,-36 930,0 1145,0 1145,-36"/>
<text text-anchor="middle" x="1037.5" y="-14.3" font-family="monospace" font-size="14.00">npu_lowered_no_elfs.mlir</text>
</g>
<!-- n5&#45;&gt;n6 -->
<g id="edge6" class="edge">
<title>n5&#45;&gt;n6</title>
<path fill="none" stroke="black" d="M894.05,-18C902.4,-18 910.98,-18 919.57,-18"/>
<polygon fill="black" stroke="black" points="919.66,-21.5 929.66,-18 919.66,-14.5 919.66,-21.5"/>
</g>
<!-- n7 -->
<g id="node8" class="node">
<title>n7</title>
<polygon fill="none" stroke="black" points="1330,-36 1181,-36 1181,0 1330,0 1330,-36"/>
<text text-anchor="middle" x="1255.5" y="-14.3" font-family="monospace" font-size="14.00">npu_seq_{0}.mlir</text>
</g>
<!-- n6&#45;&gt;n7 -->
<g id="edge7" class="edge">
<title>n6&#45;&gt;n7</title>
<path fill="none" stroke="black" d="M1145.23,-18C1153.77,-18 1162.32,-18 1170.67,-18"/>
<polygon fill="black" stroke="black" points="1170.73,-21.5 1180.73,-18 1170.73,-14.5 1170.73,-21.5"/>
</g>
<!-- n8 -->
<g id="node9" class="node">
<title>n8</title>
<polygon fill="none" stroke="black" points="1498,-36 1366,-36 1366,0 1498,0 1498,-36"/>
<text text-anchor="middle" x="1432" y="-14.3" font-family="monospace" font-size="14.00">perSeqMatching</text>
</g>
<!-- n7&#45;&gt;n8 -->
<g id="edge8" class="edge">
<title>n7&#45;&gt;n8</title>
<path fill="none" stroke="black" d="M1330.25,-18C1338.65,-18 1347.22,-18 1355.64,-18"/>
<polygon fill="black" stroke="black" points="1355.81,-21.5 1365.81,-18 1355.81,-14.5 1355.81,-21.5"/>
</g>
<!-- n9 -->
<g id="node10" class="node">
<title>n9</title>
<polygon fill="none" stroke="black" points="1707,-36 1534,-36 1534,0 1707,0 1707,-36"/>
<text text-anchor="middle" x="1620.5" y="-14.3" font-family="monospace" font-size="14.00">npu_program_{0}.bin</text>
</g>
<!-- n8&#45;&gt;n9 -->
<g id="edge9" class="edge">
<title>n8&#45;&gt;n9</title>
<path fill="none" stroke="black" d="M1498.23,-18C1506.53,-18 1515.17,-18 1523.82,-18"/>
<polygon fill="black" stroke="black" points="1523.99,-21.5 1533.99,-18 1523.99,-14.5 1523.99,-21.5"/>
</g>
<!-- n10 -->
<g id="node11" class="node">
<title>n10</title>
<polygon fill="lightblue" stroke="black" points="1867,-36 1743,-36 1743,0 1867,0 1867,-36"/>
<text text-anchor="middle" x="1805" y="-14.3" font-family="monospace" font-size="14.00">insts_{0}.bin</text>
</g>
<!-- n9&#45;&gt;n10 -->
<g id="edge10" class="edge">
<title>n9&#45;&gt;n10</title>
<path fill="none" stroke="black" d="M1707.14,-18C1715.7,-18 1724.32,-18 1732.71,-18"/>
<polygon fill="black" stroke="black" points="1732.81,-21.5 1742.81,-18 1732.81,-14.5 1732.81,-21.5"/>
</g>
</g>
</svg>
