<?xml version="1.0" encoding="UTF-8" standalone="no"?>
<!DOCTYPE svg PUBLIC "-//W3C//DTD SVG 1.1//EN"
 "http://www.w3.org/Graphics/SVG/1.1/DTD/svg11.dtd">
<!-- Generated by graphviz version 2.43.0 (0)
 -->
<!-- Title: aiecc Pages: 1 -->
<svg width="1840pt" height="44pt"
 viewBox="0.00 0.00 1840.00 44.00" xmlns="http://www.w3.org/2000/svg" xmlns:xlink="http://www.w3.org/1999/xlink">
<g id="graph0" class="graph" transform="scale(1 1) rotate(0) translate(4 40)">
<title>aiecc</title>
<polygon fill="white" stroke="transparent" points="-4,4 -4,-40 1836,-40 1836,4 -4,4"/>
<!-- n0 -->
<g id="node1" class="node">
<title>n0</title>
<polygon fill="#cdeccd" stroke="black" points="99,-36 0,-36 0,0 99,0 99,-36"/>
<text text-anchor="middle" x="49.5" y="-14.3" font-family="monospace" font-size="14.00">input.mlir</text>
</g>
<!-- n1 -->
<g id="node2" class="node">
<title>n1</title>
<polygon fill="#cdeccd" stroke="black" points="243,-36 136,-36 136,0 243,0 243,-36"/>
<text text-anchor="middle" x="189.5" y="-14.3" font-family="monospace" font-size="14.00">placed.mlir</text>
</g>
<!-- n0&#45;&gt;n1 -->
<g id="edge1" class="edge">
<title>n0&#45;&gt;n1</title>
<path fill="none" stroke="black" d="M99.15,-18C107.63,-18 116.56,-18 125.36,-18"/>
<polygon fill="black" stroke="black" points="125.6,-21.5 135.6,-18 125.6,-14.5 125.6,-21.5"/>
</g>
<!-- n2 -->
<g id="node3" class="node">
<title>n2</title>
<polygon fill="#cdeccd" stroke="black" points="387,-36 280,-36 280,0 387,0 387,-36"/>
<text text-anchor="middle" x="333.5" y="-14.3" font-family="monospace" font-size="14.00">traced.mlir</text>
</g>
<!-- n1&#45;&gt;n2 -->
<g id="edge2" class="edge">
<title>n1&#45;&gt;n2</title>
<path fill="none" stroke="black" d="M243.38,-18C251.88,-18 260.75,-18 269.46,-18"/>
<polygon fill="black" stroke="black" points="269.58,-21.5 279.58,-18 269.58,-14.5 269.58,-21.5"/>
</g>
<!-- n3 -->
<g id="node4" class="node">
<title>n3</title>
<polygon fill="#cdeccd" stroke="black" points="688,-36 424,-36 424,0 688,0 688,-36"/>
<text text-anchor="middle" x="556" y="-14.3" font-family="monospace" font-size="14.00">work/input_with_addresses.mlir</text>
</g>
<!-- n2&#45;&gt;n3 -->
<g id="edge3" class="edge">
<title>n2&#45;&gt;n3</title>
<path fill="none" stroke="black" d="M387.04,-18C395.36,-18 404.3,-18 413.55,-18"/>
<polygon fill="black" stroke="black" points="413.71,-21.5 423.71,-18 413.71,-14.5 413.71,-21.5"/>
</g>
<!-- n4 -->
<g id="node5" class="node">
<title>n4</title>
<polygon fill="#8fd694" stroke="black" points="898,-36 725,-36 725,0 898,0 898,-36"/>
<text text-anchor="middle" x="811.5" y="-14.3" font-family="monospace" font-size="14.00">input_physical.mlir</text>
</g>
<!-- n3&#45;&gt;n4 -->
<g id="edge4" class="edge">
<title>n3&#45;&gt;n4</title>
<path fill="none" stroke="black" d="M688.21,-18C697.15,-18 706.06,-18 714.77,-18"/>
<polygon fill="black" stroke="black" points="714.88,-21.5 724.88,-18 714.88,-14.5 714.88,-21.5"/>
</g>
<!-- n5 -->
<g id="node6" class="node">
<title>n5</title>
<polygon fill="none" stroke="black" points="1106,-36 957,-36 957,0 1106,0 1106,-36"/>
<text text-anchor="middle" x="1031.5" y="-14.3" font-family="monospace" font-size="14.00">npu_lowered.mlir</text>
</g>
<!-- n4&#45;&gt;n5 -->
<g id="edge5" class="edge">
<title>n4&#45;&gt;n5</title>
<path fill="none" stroke="red" stroke-width="2" stroke-dasharray="5,2" d="M898.03,-18C913.98,-18 930.64,-18 946.54,-18"/>
<polygon fill="red" stroke="red" stroke-width="2" points="946.86,-21.5 956.86,-18 946.86,-14.5 946.86,-21.5"/>
<text text-anchor="middle" x="927.5" y="-21.8" font-family="Times,serif" font-size="14.00" fill="red">cut</text>
</g>
<!-- n6 -->
<g id="node7" class="node">
<title>n6</title>
<polygon fill="none" stroke="black" points="1292,-36 1143,-36 1143,0 1292,0 1292,-36"/>
<text text-anchor="middle" x="1217.5" y="-14.3" font-family="monospace" font-size="14.00">npu_seq_{0}.mlir</text>
</g>
<!-- n5&#45;&gt;n6 -->
<g id="edge6" class="edge">
<title>n5&#45;&gt;n6</title>
<path fill="none" stroke="black" d="M1106.01,-18C1114.82,-18 1123.85,-18 1132.78,-18"/>
<polygon fill="black" stroke="black" points="1132.8,-21.5 1142.8,-18 1132.8,-14.5 1132.8,-21.5"/>
</g>
<!-- n7 -->
<g id="node8" class="node">
<title>n7</title>
<polygon fill="none" stroke="black" points="1461,-36 1329,-36 1329,0 1461,0 1461,-36"/>
<text text-anchor="middle" x="1395" y="-14.3" font-family="monospace" font-size="14.00">perSeqMatching</text>
</g>
<!-- n6&#45;&gt;n7 -->
<g id="edge7" class="edge">
<title>n6&#45;&gt;n7</title>
<path fill="none" stroke="black" d="M1292.16,-18C1300.93,-18 1309.89,-18 1318.67,-18"/>
<polygon fill="black" stroke="black" points="1318.89,-21.5 1328.89,-18 1318.89,-14.5 1318.89,-21.5"/>
</g>
<!-- n8 -->
<g id="node9" class="node">
<title>n8</title>
<polygon fill="none" stroke="black" points="1671,-36 1498,-36 1498,0 1671,0 1671,-36"/>
<text text-anchor="middle" x="1584.5" y="-14.3" font-family="monospace" font-size="14.00">npu_program_{0}.bin</text>
</g>
<!-- n7&#45;&gt;n8 -->
<g id="edge8" class="edge">
<title>n7&#45;&gt;n8</title>
<path fill="none" stroke="black" d="M1461.05,-18C1469.66,-18 1478.62,-18 1487.61,-18"/>
<polygon fill="black" stroke="black" points="1487.76,-21.5 1497.76,-18 1487.76,-14.5 1487.76,-21.5"/>
</g>
<!-- n9 -->
<g id="node10" class="node">
<title>n9</title>
<polygon fill="lightblue" stroke="black" points="1832,-36 1708,-36 1708,0 1832,0 1832,-36"/>
<text text-anchor="middle" x="1770" y="-14.3" font-family="monospace" font-size="14.00">insts_{0}.bin</text>
</g>
<!-- n8&#45;&gt;n9 -->
<g id="edge9" class="edge">
<title>n8&#45;&gt;n9</title>
<path fill="none" stroke="black" d="M1671.07,-18C1680,-18 1689.01,-18 1697.76,-18"/>
<polygon fill="black" stroke="black" points="1697.89,-21.5 1707.89,-18 1697.89,-14.5 1697.89,-21.5"/>
</g>
</g>
</svg>
