<?xml version="1.0" encoding="UTF-8" standalone="no"?>
<!DOCTYPE svg PUBLIC "-//W3C//DTD SVG 1.1//EN"
 "http://www.w3.org/Graphics/SVG/1.1/DTD/svg11.dtd">
<!-- Generated by graphviz version 2.43.0 (0)
 -->
<!-- Title: aiecc Pages: 1 -->
<svg width="1928pt" height="98pt"
 viewBox="0.00 0.00 1928.00 98.00" xmlns="http://www.w3.org/2000/svg" xmlns:xlink="http://www.w3.org/1999/xlink">
<g id="graph0" class="graph" transform="scale(1 1) rotate(0) translate(4 94)">
<title>aiecc</title>
<polygon fill="white" stroke="transparent" points="-4,4 -4,-94 1924,-94 1924,4 -4,4"/>
<!-- n0 -->
<g id="node1" class="node">
<title>n0</title>
<polygon fill="#cdeccd" stroke="black" points="99,-63 0,-63 0,-27 99,-27 99,-63"/>
<text text-anchor="middle" x="49.5" y="-41.3" font-family="monospace" font-size="14.00">input.mlir</text>
</g>
<!-- n1 -->
<g id="node2" class="node">
<title>n1</title>
<polygon fill="#cdeccd" stroke="black" points="243,-63 136,-63 136,-27 243,-27 243,-63"/>
<text text-anchor="middle" x="189.5" y="-41.3" font-family="monospace" font-size="14.00">placed.mlir</text>
</g>
<!-- n0&#45;&gt;n1 -->
<g id="edge1" class="edge">
<title>n0&#45;&gt;n1</title>
<path fill="none" stroke="black" d="M99.15,-45C107.63,-45 116.56,-45 125.36,-45"/>
<polygon fill="black" stroke="black" points="125.6,-48.5 135.6,-45 125.6,-41.5 125.6,-48.5"/>
</g>
<!-- n2 -->
<g id="node3" class="node">
<title>n2</title>
<polygon fill="#cdeccd" stroke="black" points="387,-63 280,-63 280,-27 387,-27 387,-63"/>
<text text-anchor="middle" x="333.5" y="-41.3" font-family="monospace" font-size="14.00">traced.mlir</text>
</g>
<!-- n1&#45;&gt;n2 -->
<g id="edge2" class="edge">
<title>n1&#45;&gt;n2</title>
<path fill="none" stroke="black" d="M243.38,-45C251.88,-45 260.75,-45 269.46,-45"/>
<polygon fill="black" stroke="black" points="269.58,-48.5 279.58,-45 269.58,-41.5 269.58,-48.5"/>
</g>
<!-- n3 -->
<g id="node4" class="node">
<title>n3</title>
<polygon fill="#cdeccd" stroke="black" points="688,-63 424,-63 424,-27 688,-27 688,-63"/>
<text text-anchor="middle" x="556" y="-41.3" font-family="monospace" font-size="14.00">work/input_with_addresses.mlir</text>
</g>
<!-- n2&#45;&gt;n3 -->
<g id="edge3" class="edge">
<title>n2&#45;&gt;n3</title>
<path fill="none" stroke="black" d="M387.04,-45C395.36,-45 404.3,-45 413.55,-45"/>
<polygon fill="black" stroke="black" points="413.71,-48.5 423.71,-45 413.71,-41.5 413.71,-48.5"/>
</g>
<!-- n4 -->
<g id="node5" class="node">
<title>n4</title>
<polygon fill="lightblue" stroke="black" points="903.5,-90 763.5,-90 763.5,-54 903.5,-54 903.5,-90"/>
<text text-anchor="middle" x="833.5" y="-68.3" font-family="monospace" font-size="14.00">work/params.txt</text>
</g>
<!-- n3&#45;&gt;n4 -->
<g id="edge4" class="edge">
<title>n3&#45;&gt;n4</title>
<path fill="none" stroke="red" stroke-width="2" stroke-dasharray="5,2" d="M688.3,-57.87C710.47,-60.04 732.86,-62.23 753.17,-64.23"/>
<polygon fill="red" stroke="red" stroke-width="2" points="752.99,-67.72 763.28,-65.22 753.67,-60.76 752.99,-67.72"/>
<text text-anchor="middle" x="717.5" y="-64.8" font-family="Times,serif" font-size="14.00" fill="red">cut</text>
</g>
<!-- n5 -->
<g id="node6" class="node">
<title>n5</title>
<polygon fill="#8fd694" stroke="black" points="920,-36 747,-36 747,0 920,0 920,-36"/>
<text text-anchor="middle" x="833.5" y="-14.3" font-family="monospace" font-size="14.00">input_physical.mlir</text>
</g>
<!-- n3&#45;&gt;n5 -->
<g id="edge5" class="edge">
<title>n3&#45;&gt;n5</title>
<path fill="none" stroke="black" d="M688.3,-32.13C704.55,-30.54 720.93,-28.93 736.52,-27.41"/>
<polygon fill="black" stroke="black" points="737.03,-30.87 746.64,-26.41 736.35,-23.91 737.03,-30.87"/>
</g>
<!-- n6 -->
<g id="node7" class="node">
<title>n6</title>
<polygon fill="none" stroke="black" points="1194,-36 979,-36 979,0 1194,0 1194,-36"/>
<text text-anchor="middle" x="1086.5" y="-14.3" font-family="monospace" font-size="14.00">npu_lowered_no_elfs.mlir</text>
</g>
<!-- n5&#45;&gt;n6 -->
<g id="edge6" class="edge">
<title>n5&#45;&gt;n6</title>
<path fill="none" stroke="red" stroke-width="2" stroke-dasharray="5,2" d="M920.18,-18C935.82,-18 952.38,-18 968.75,-18"/>
<polygon fill="red" stroke="red" stroke-width="2" points="968.9,-21.5 978.9,-18 968.9,-14.5 968.9,-21.5"/>
<text text-anchor="middle" x="949.5" y="-21.8" font-family="Times,serif" font-size="14.00" fill="red">cut</text>
</g>
<!-- n7 -->
<g id="node8" class="node">
<title>n7</title>
<polygon fill="none" stroke="black" points="1380,-36 1231,-36 1231,0 1380,0 1380,-36"/>
<text text-anchor="middle" x="1305.5" y="-14.3" font-family="monospace" font-size="14.00">npu_seq_{0}.mlir</text>
</g>
<!-- n6&#45;&gt;n7 -->
<g id="edge7" class="edge">
<title>n6&#45;&gt;n7</title>
<path fill="none" stroke="black" d="M1194.09,-18C1203.03,-18 1211.98,-18 1220.71,-18"/>
<polygon fill="black" stroke="black" points="1220.84,-21.5 1230.84,-18 1220.84,-14.5 1220.84,-21.5"/>
</g>
<!-- n8 -->
<g id="node9" class="node">
<title>n8</title>
<polygon fill="none" stroke="black" points="1549,-36 1417,-36 1417,0 1549,0 1549,-36"/>
<text text-anchor="middle" x="1483" y="-14.3" font-family="monospace" font-size="14.00">perSeqMatching</text>
</g>
<!-- n7&#45;&gt;n8 -->
<g id="edge8" class="edge">
<title>n7&#45;&gt;n8</title>
<path fill="none" stroke="black" d="M1380.16,-18C1388.93,-18 1397.89,-18 1406.67,-18"/>
<polygon fill="black" stroke="black" points="1406.89,-21.5 1416.89,-18 1406.89,-14.5 1406.89,-21.5"/>
</g>
<!-- n9 -->
<g id="node10" class="node">
<title>n9</title>
<polygon fill="none" stroke="black" points="1759,-36 1586,-36 1586,0 1759,0 1759,-36"/>
<text text-anchor="middle" x="1672.5" y="-14.3" font-family="monospace" font-size="14.00">npu_program_{0}.bin</text>
</g>
<!-- n8&#45;&gt;n9 -->
<g id="edge9" class="edge">
<title>n8&#45;&gt;n9</title>
<path fill="none" stroke="black" d="M1549.05,-18C1557.66,-18 1566.62,-18 1575.61,-18"/>
<polygon fill="black" stroke="black" points="1575.76,-21.5 1585.76,-18 1575.76,-14.5 1575.76,-21.5"/>
</g>
<!-- n10 -->
<g id="node11" class="node">
<title>n10</title>
<polygon fill="lightblue" stroke="black" points="1920,-36 1796,-36 1796,0 1920,0 1920,-36"/>
<text text-anchor="middle" x="1858" y="-14.3" font-family="monospace" font-size="14.00">insts_{0}.bin</text>
</g>
<!-- n9&#45;&gt;n10 -->
<g id="edge10" class="edge">
<title>n9&#45;&gt;n10</title>
<path fill="none" stroke="black" d="M1759.07,-18C1768,-18 1777.01,-18 1785.76,-18"/>
<polygon fill="black" stroke="black" points="1785.89,-21.5 1795.89,-18 1785.89,-14.5 1785.89,-21.5"/>
</g>
</g>
</svg>
