<?xml version="1.0" encoding="UTF-8" standalone="no"?>
<!DOCTYPE svg PUBLIC "-//W3C//DTD SVG 1.1//EN"
 "http://www.w3.org/Graphics/SVG/1.1/DTD/svg11.dtd">
<!-- Generated by graphviz version 2.43.0 (0)
 -->
<!-- Title: aiecc Pages: 1 -->
<svg width="1799pt" height="44pt"
 viewBox="0.00 0.00 1799.00 44.00" xmlns="http://www.w3.org/2000/svg" xmlns:xlink="http://www.w3.org/1999/xlink">
<g id="graph0" class="graph" transform="scale(1 1) rotate(0) translate(4 40)">
<title>aiecc</title>
<polygon fill="white" stroke="transparent" points="-4,4 -4,-40 1795,-40 1795,4 -4,4"/>
<!-- n0 -->
<g id="node1" class="node">
<title>n0</title>
<polygon fill="#cdeccd" stroke="black" points="99,-36 0,-36 0,0 99,0 99,-36"/>
<text text-anchor="middle" x="49.5" y="-14.3" font-family="monospace" font-size="14.00">input.mlir</text>
</g>
<!-- n1 -->
<g id="node2" class="node">
<title>n1</title>
<polygon fill="#cdeccd" stroke="black" points="243,-36 136,-36 136,0 243,0 243,-36"/>
<text text-anchor="middle" x="189.5" y="-14.3" font-family="monospace" font-size="14.00">placed.mlir</text>
</g>
<!-- n0&#45;&gt;n1 -->
<g id="edge1" class="edge">
<title>n0&#45;&gt;n1</title>
<path fill="none" stroke="black" d="M99.15,-18C107.63,-18 116.56,-18 125.36,-18"/>
<polygon fill="black" stroke="black" points="125.6,-21.5 135.6,-18 125.6,-14.5 125.6,-21.5"/>
</g>
<!-- n2 -->
<g id="node3" class="node">
<title>n2</title>
<polygon fill="#cdeccd" stroke="black" points="387,-36 280,-36 280,0 387,0 387,-36"/>
<text text-anchor="middle" x="333.5" y="-14.3" font-family="monospace" font-size="14.00">traced.mlir</text>
</g>
<!-- n1&#45;&gt;n2 -->
<g id="edge2" class="edge">
<title>n1&#45;&gt;n2</title>
<path fill="none" stroke="black" d="M243.38,-18C251.88,-18 260.75,-18 269.46,-18"/>
<polygon fill="black" stroke="black" points="269.58,-21.5 279.58,-18 269.58,-14.5 269.58,-21.5"/>
</g>
<!-- n3 -->
<g id="node4" class="node">
<title>n3</title>
<polygon fill="#cdeccd" stroke="black" points="647,-36 424,-36 424,0 647,0 647,-36"/>
<text text-anchor="middle" x="535.5" y="-14.3" font-family="monospace" font-size="14.00">input_with_addresses.mlir</text>
</g>
<!-- n2&#45;&gt;n3 -->
<g id="edge3" class="edge">
<title>n2&#45;&gt;n3</title>
<path fill="none" stroke="black" d="M387.05,-18C395.46,-18 404.46,-18 413.71,-18"/>
<polygon fill="black" stroke="black" points="413.82,-21.5 423.82,-18 413.82,-14.5 413.82,-21.5"/>
</g>
<!-- n4 -->
<g id="node5" class="node">
<title>n4</title>
<polygon fill="#8fd694" stroke="black" points="857,-36 684,-36 684,0 857,0 857,-36"/>
<text text-anchor="middle" x="770.5" y="-14.3" font-family="monospace" font-size="14.00">input_physical.mlir</text>
</g>
<!-- n3&#45;&gt;n4 -->
<g id="edge4" class="edge">
<title>n3&#45;&gt;n4</title>
<path fill="none" stroke="black" d="M647.2,-18C656.06,-18 664.97,-18 673.71,-18"/>
<polygon fill="black" stroke="black" points="673.89,-21.5 683.89,-18 673.89,-14.5 673.89,-21.5"/>
</g>
<!-- n5 -->
<g id="node6" class="node">
<title>n5</title>
<polygon fill="none" stroke="black" points="1065,-36 916,-36 916,0 1065,0 1065,-36"/>
<text text-anchor="middle" x="990.5" y="-14.3" font-family="monospace" font-size="14.00">npu_lowered.mlir</text>
</g>
<!-- n4&#45;&gt;n5 -->
<g id="edge5" class="edge">
<title>n4&#45;&gt;n5</title>
<path fill="none" stroke="red" stroke-width="2" stroke-dasharray="5,2" d="M857.03,-18C872.98,-18 889.64,-18 905.54,-18"/>
<polygon fill="red" stroke="red" stroke-width="2" points="905.86,-21.5 915.86,-18 905.86,-14.5 905.86,-21.5"/>
<text text-anchor="middle" x="886.5" y="-21.8" font-family="Times,serif" font-size="14.00" fill="red">cut</text>
</g>
<!-- n6 -->
<g id="node7" class="node">
<title>n6</title>
<polygon fill="none" stroke="black" points="1251,-36 1102,-36 1102,0 1251,0 1251,-36"/>
<text text-anchor="middle" x="1176.5" y="-14.3" font-family="monospace" font-size="14.00">npu_seq_{0}.mlir</text>
</g>
<!-- n5&#45;&gt;n6 -->
<g id="edge6" class="edge">
<title>n5&#45;&gt;n6</title>
<path fill="none" stroke="black" d="M1065.01,-18C1073.82,-18 1082.85,-18 1091.78,-18"/>
<polygon fill="black" stroke="black" points="1091.8,-21.5 1101.8,-18 1091.8,-14.5 1091.8,-21.5"/>
</g>
<!-- n7 -->
<g id="node8" class="node">
<title>n7</title>
<polygon fill="none" stroke="black" points="1420,-36 1288,-36 1288,0 1420,0 1420,-36"/>
<text text-anchor="middle" x="1354" y="-14.3" font-family="monospace" font-size="14.00">perSeqMatching</text>
</g>
<!-- n6&#45;&gt;n7 -->
<g id="edge7" class="edge">
<title>n6&#45;&gt;n7</title>
<path fill="none" stroke="black" d="M1251.16,-18C1259.93,-18 1268.89,-18 1277.67,-18"/>
<polygon fill="black" stroke="black" points="1277.89,-21.5 1287.89,-18 1277.89,-14.5 1277.89,-21.5"/>
</g>
<!-- n8 -->
<g id="node9" class="node">
<title>n8</title>
<polygon fill="none" stroke="black" points="1630,-36 1457,-36 1457,0 1630,0 1630,-36"/>
<text text-anchor="middle" x="1543.5" y="-14.3" font-family="monospace" font-size="14.00">npu_program_{0}.bin</text>
</g>
<!-- n7&#45;&gt;n8 -->
<g id="edge8" class="edge">
<title>n7&#45;&gt;n8</title>
<path fill="none" stroke="black" d="M1420.05,-18C1428.66,-18 1437.62,-18 1446.61,-18"/>
<polygon fill="black" stroke="black" points="1446.76,-21.5 1456.76,-18 1446.76,-14.5 1446.76,-21.5"/>
</g>
<!-- n9 -->
<g id="node10" class="node">
<title>n9</title>
<polygon fill="lightblue" stroke="black" points="1791,-36 1667,-36 1667,0 1791,0 1791,-36"/>
<text text-anchor="middle" x="1729" y="-14.3" font-family="monospace" font-size="14.00">insts_{0}.bin</text>
</g>
<!-- n8&#45;&gt;n9 -->
<g id="edge9" class="edge">
<title>n8&#45;&gt;n9</title>
<path fill="none" stroke="black" d="M1630.07,-18C1639,-18 1648.01,-18 1656.76,-18"/>
<polygon fill="black" stroke="black" points="1656.89,-21.5 1666.89,-18 1656.89,-14.5 1656.89,-21.5"/>
</g>
</g>
</svg>
