<?xml version="1.0" encoding="UTF-8" standalone="no"?>
<!DOCTYPE svg PUBLIC "-//W3C//DTD SVG 1.1//EN"
 "http://www.w3.org/Graphics/SVG/1.1/DTD/svg11.dtd">
<!-- Generated by graphviz version 2.43.0 (0)
 -->
<!-- Title: aiecc Pages: 1 -->
<svg width="1809pt" height="44pt"
 viewBox="0.00 0.00 1809.00 44.00" xmlns="http://www.w3.org/2000/svg" xmlns:xlink="http://www.w3.org/1999/xlink">
<g id="graph0" class="graph" transform="scale(1 1) rotate(0) translate(4 40)">
<title>aiecc</title>
<polygon fill="white" stroke="transparent" points="-4,4 -4,-40 1805,-40 1805,4 -4,4"/>
<!-- n0 -->
<g id="node1" class="node">
<title>n0</title>
<polygon fill="none" stroke="black" points="99,-36 0,-36 0,0 99,0 99,-36"/>
<text text-anchor="middle" x="49.5" y="-14.3" font-family="monospace" font-size="14.00">input.mlir</text>
</g>
<!-- n1 -->
<g id="node2" class="node">
<title>n1</title>
<polygon fill="none" stroke="black" points="242,-36 135,-36 135,0 242,0 242,-36"/>
<text text-anchor="middle" x="188.5" y="-14.3" font-family="monospace" font-size="14.00">placed.mlir</text>
</g>
<!-- n0&#45;&gt;n1 -->
<g id="edge1" class="edge">
<title>n0&#45;&gt;n1</title>
<path fill="none" stroke="black" d="M99.19,-18C107.39,-18 116,-18 124.51,-18"/>
<polygon fill="black" stroke="black" points="124.79,-21.5 134.79,-18 124.79,-14.5 124.79,-21.5"/>
</g>
<!-- n2 -->
<g id="node3" class="node">
<title>n2</title>
<polygon fill="none" stroke="black" points="385,-36 278,-36 278,0 385,0 385,-36"/>
<text text-anchor="middle" x="331.5" y="-14.3" font-family="monospace" font-size="14.00">traced.mlir</text>
</g>
<!-- n1&#45;&gt;n2 -->
<g id="edge2" class="edge">
<title>n1&#45;&gt;n2</title>
<path fill="none" stroke="black" d="M242,-18C250.44,-18 259.26,-18 267.9,-18"/>
<polygon fill="black" stroke="black" points="267.95,-21.5 277.95,-18 267.95,-14.5 267.95,-21.5"/>
</g>
<!-- n3 -->
<g id="node4" class="node">
<title>n3</title>
<polygon fill="none" stroke="black" points="685,-36 421,-36 421,0 685,0 685,-36"/>
<text text-anchor="middle" x="553" y="-14.3" font-family="monospace" font-size="14.00">work/input_with_addresses.mlir</text>
</g>
<!-- n2&#45;&gt;n3 -->
<g id="edge3" class="edge">
<title>n2&#45;&gt;n3</title>
<path fill="none" stroke="black" d="M385.08,-18C393.09,-18 401.67,-18 410.56,-18"/>
<polygon fill="black" stroke="black" points="410.71,-21.5 420.71,-18 410.71,-14.5 410.71,-21.5"/>
</g>
<!-- n4 -->
<g id="node5" class="node">
<title>n4</title>
<polygon fill="none" stroke="black" points="894,-36 721,-36 721,0 894,0 894,-36"/>
<text text-anchor="middle" x="807.5" y="-14.3" font-family="monospace" font-size="14.00">input_physical.mlir</text>
</g>
<!-- n3&#45;&gt;n4 -->
<g id="edge4" class="edge">
<title>n3&#45;&gt;n4</title>
<path fill="none" stroke="black" d="M685.06,-18C693.68,-18 702.27,-18 710.67,-18"/>
<polygon fill="black" stroke="black" points="710.82,-21.5 720.82,-18 710.82,-14.5 710.82,-21.5"/>
</g>
<!-- n5 -->
<g id="node6" class="node">
<title>n5</title>
<polygon fill="none" stroke="black" points="1079,-36 930,-36 930,0 1079,0 1079,-36"/>
<text text-anchor="middle" x="1004.5" y="-14.3" font-family="monospace" font-size="14.00">npu_lowered.mlir</text>
</g>
<!-- n4&#45;&gt;n5 -->
<g id="edge5" class="edge">
<title>n4&#45;&gt;n5</title>
<path fill="none" stroke="black" d="M894.03,-18C902.54,-18 911.18,-18 919.67,-18"/>
<polygon fill="black" stroke="black" points="919.94,-21.5 929.94,-18 919.94,-14.5 919.94,-21.5"/>
</g>
<!-- n6 -->
<g id="node7" class="node">
<title>n6</title>
<polygon fill="none" stroke="black" points="1264,-36 1115,-36 1115,0 1264,0 1264,-36"/>
<text text-anchor="middle" x="1189.5" y="-14.3" font-family="monospace" font-size="14.00">npu_seq_{0}.mlir</text>
</g>
<!-- n5&#45;&gt;n6 -->
<g id="edge6" class="edge">
<title>n5&#45;&gt;n6</title>
<path fill="none" stroke="black" d="M1079.14,-18C1087.47,-18 1096.01,-18 1104.46,-18"/>
<polygon fill="black" stroke="black" points="1104.71,-21.5 1114.71,-18 1104.71,-14.5 1104.71,-21.5"/>
</g>
<!-- n7 -->
<g id="node8" class="node">
<title>n7</title>
<polygon fill="none" stroke="black" points="1432,-36 1300,-36 1300,0 1432,0 1432,-36"/>
<text text-anchor="middle" x="1366" y="-14.3" font-family="monospace" font-size="14.00">perSeqMatching</text>
</g>
<!-- n6&#45;&gt;n7 -->
<g id="edge7" class="edge">
<title>n6&#45;&gt;n7</title>
<path fill="none" stroke="black" d="M1264.25,-18C1272.65,-18 1281.22,-18 1289.64,-18"/>
<polygon fill="black" stroke="black" points="1289.81,-21.5 1299.81,-18 1289.81,-14.5 1289.81,-21.5"/>
</g>
<!-- n8 -->
<g id="node9" class="node">
<title>n8</title>
<polygon fill="none" stroke="black" points="1641,-36 1468,-36 1468,0 1641,0 1641,-36"/>
<text text-anchor="middle" x="1554.5" y="-14.3" font-family="monospace" font-size="14.00">npu_program_{0}.bin</text>
</g>
<!-- n7&#45;&gt;n8 -->
<g id="edge8" class="edge">
<title>n7&#45;&gt;n8</title>
<path fill="none" stroke="black" d="M1432.23,-18C1440.53,-18 1449.17,-18 1457.82,-18"/>
<polygon fill="black" stroke="black" points="1457.99,-21.5 1467.99,-18 1457.99,-14.5 1457.99,-21.5"/>
</g>
<!-- n9 -->
<g id="node10" class="node">
<title>n9</title>
<polygon fill="lightblue" stroke="black" points="1801,-36 1677,-36 1677,0 1801,0 1801,-36"/>
<text text-anchor="middle" x="1739" y="-14.3" font-family="monospace" font-size="14.00">insts_{0}.bin</text>
</g>
<!-- n8&#45;&gt;n9 -->
<g id="edge9" class="edge">
<title>n8&#45;&gt;n9</title>
<path fill="none" stroke="black" d="M1641.14,-18C1649.7,-18 1658.32,-18 1666.71,-18"/>
<polygon fill="black" stroke="black" points="1666.81,-21.5 1676.81,-18 1666.81,-14.5 1666.81,-21.5"/>
</g>
</g>
</svg>
