<?xml version="1.0" encoding="UTF-8" standalone="no"?>
<!DOCTYPE svg PUBLIC "-//W3C//DTD SVG 1.1//EN"
 "http://www.w3.org/Graphics/SVG/1.1/DTD/svg11.dtd">
<!-- Generated by graphviz version 2.43.0 (0)
 -->
<!-- Title: bundle_map Pages: 1 -->
<svg width="199pt" height="284pt"
 viewBox="0.00 0.00 199.00 284.00" xmlns="http://www.w3.org/2000/svg" xmlns:xlink="http://www.w3.org/1999/xlink">
<g id="graph0" class="graph" transform="scale(1 1) rotate(0) translate(4 280)">
<title>bundle_map</title>
<polygon fill="white" stroke="transparent" points="-4,4 -4,-280 195,-280 195,4 -4,4"/>
<g id="clust1" class="cluster">
<title>cluster_a</title>
<polygon fill="#eeeeee" stroke="#eeeeee" points="8,-142 8,-268 78,-268 78,-142 8,-142"/>
<text text-anchor="middle" x="43" y="-255.2" font-family="monospace" font-size="11.00">Node&lt;A&gt;</text>
</g>
<g id="clust2" class="cluster">
<title>cluster_b</title>
<polygon fill="#e8e0ff" stroke="#e8e0ff" points="8,-8 8,-134 78,-134 78,-8 8,-8"/>
<text text-anchor="middle" x="43" y="-121.2" font-family="monospace" font-size="11.00">Node&lt;B&gt;</text>
</g>
<g id="clust3" class="cluster">
<title>cluster_out</title>
<polygon fill="#cfe8ff" stroke="#cfe8ff" points="113,-79 113,-205 183,-205 183,-79 113,-79"/>
<text text-anchor="middle" x="148" y="-192.2" font-family="monospace" font-size="11.00">Node&lt;U&gt;</text>
</g>
<!-- a1 -->
<g id="node1" class="node">
<title>a1</title>
<polygon fill="none" stroke="black" points="70,-240 16,-240 16,-204 70,-204 70,-240"/>
<text text-anchor="middle" x="43" y="-219.5" font-family="monospace" font-size="10.00">key=a</text>
</g>
<!-- o1 -->
<g id="node5" class="node">
<title>o1</title>
<polygon fill="none" stroke="black" points="175,-177 121,-177 121,-141 175,-141 175,-177"/>
<text text-anchor="middle" x="148" y="-156.5" font-family="monospace" font-size="10.00">key=a</text>
</g>
<!-- a1&#45;&gt;o1 -->
<g id="edge1" class="edge">
<title>a1&#45;&gt;o1</title>
<path fill="none" stroke="black" d="M70.26,-205.94C82.97,-198.16 98.41,-188.72 112.09,-180.35"/>
<polygon fill="black" stroke="black" points="114.09,-183.23 120.79,-175.03 110.43,-177.26 114.09,-183.23"/>
<text text-anchor="middle" x="95.5" y="-197.8" font-family="Times,serif" font-size="14.00">fn</text>
</g>
<!-- a2 -->
<g id="node2" class="node">
<title>a2</title>
<polygon fill="none" stroke="black" points="70,-186 16,-186 16,-150 70,-150 70,-186"/>
<text text-anchor="middle" x="43" y="-165.5" font-family="monospace" font-size="10.00">key=b</text>
</g>
<!-- o2 -->
<g id="node6" class="node">
<title>o2</title>
<polygon fill="none" stroke="black" points="175,-123 121,-123 121,-87 175,-87 175,-123"/>
<text text-anchor="middle" x="148" y="-102.5" font-family="monospace" font-size="10.00">key=b</text>
</g>
<!-- a2&#45;&gt;o2 -->
<g id="edge3" class="edge">
<title>a2&#45;&gt;o2</title>
<path fill="none" stroke="black" d="M70.26,-151.94C82.97,-144.16 98.41,-134.72 112.09,-126.35"/>
<polygon fill="black" stroke="black" points="114.09,-129.23 120.79,-121.03 110.43,-123.26 114.09,-129.23"/>
<text text-anchor="middle" x="95.5" y="-143.8" font-family="Times,serif" font-size="14.00">fn</text>
</g>
<!-- b1 -->
<g id="node3" class="node">
<title>b1</title>
<polygon fill="none" stroke="black" points="70,-106 16,-106 16,-70 70,-70 70,-106"/>
<text text-anchor="middle" x="43" y="-85.5" font-family="monospace" font-size="10.00">key=a</text>
</g>
<!-- b1&#45;&gt;o1 -->
<g id="edge2" class="edge">
<title>b1&#45;&gt;o1</title>
<path fill="none" stroke="black" d="M70.21,-105.62C80.46,-112.56 92.31,-120.61 103,-128 106.28,-130.27 109.69,-132.64 113.09,-135.02"/>
<polygon fill="black" stroke="black" points="111.26,-138.01 121.46,-140.89 115.29,-132.28 111.26,-138.01"/>
</g>
<!-- b2 -->
<g id="node4" class="node">
<title>b2</title>
<polygon fill="none" stroke="black" points="70,-52 16,-52 16,-16 70,-16 70,-52"/>
<text text-anchor="middle" x="43" y="-31.5" font-family="monospace" font-size="10.00">key=b</text>
</g>
<!-- b2&#45;&gt;o2 -->
<g id="edge4" class="edge">
<title>b2&#45;&gt;o2</title>
<path fill="none" stroke="black" d="M70.26,-52.1C83.09,-60.95 98.7,-71.71 112.49,-81.21"/>
<polygon fill="black" stroke="black" points="110.57,-84.14 120.79,-86.93 114.54,-78.38 110.57,-84.14"/>
</g>
</g>
</svg>
