<?xml version="1.0" encoding="UTF-8" standalone="no"?>
<!DOCTYPE svg PUBLIC "-//W3C//DTD SVG 1.1//EN"
 "http://www.w3.org/Graphics/SVG/1.1/DTD/svg11.dtd">
<!-- Generated by graphviz version 2.43.0 (0)
 -->
<!-- Title: fileInput Pages: 1 -->
<svg width="347pt" height="96pt"
 viewBox="0.00 0.00 347.00 96.00" xmlns="http://www.w3.org/2000/svg" xmlns:xlink="http://www.w3.org/1999/xlink">
<g id="graph0" class="graph" transform="scale(1 1) rotate(0) translate(4 92)">
<title>fileInput</title>
<polygon fill="white" stroke="transparent" points="-4,4 -4,-92 343,-92 343,4 -4,4"/>
<g id="clust1" class="cluster">
<title>cluster_out</title>
<polygon fill="#cfe8ff" stroke="#cfe8ff" points="172,-8 172,-80 337,-80 337,-8 172,-8"/>
<text text-anchor="middle" x="254.5" y="-67.2" font-family="monospace" font-size="11.00">Node&lt;File&gt; (singleton)</text>
</g>
<!-- disk -->
<g id="node1" class="node">
<title>disk</title>
<polygon fill="none" stroke="#bbbbbb" points="77,-52 0,-52 0,-16 83,-16 83,-46 77,-52"/>
<polyline fill="none" stroke="#bbbbbb" points="77,-52 77,-46 "/>
<polyline fill="none" stroke="#bbbbbb" points="83,-46 77,-46 "/>
<text text-anchor="middle" x="41.5" y="-37" font-family="monospace" font-size="10.00">design.mlir</text>
<text text-anchor="middle" x="41.5" y="-26" font-family="monospace" font-size="10.00">(on disk)</text>
</g>
<!-- o0 -->
<g id="node2" class="node">
<title>o0</title>
<polygon fill="none" stroke="black" points="323,-52 186,-52 186,-16 323,-16 323,-52"/>
<text text-anchor="middle" x="254.5" y="-37" font-family="monospace" font-size="10.00">key=name</text>
<text text-anchor="middle" x="254.5" y="-26" font-family="monospace" font-size="10.00">filePath=design.mlir</text>
</g>
<!-- disk&#45;&gt;o0 -->
<g id="edge1" class="edge">
<title>disk&#45;&gt;o0</title>
<path fill="none" stroke="black" d="M83.18,-34C109.44,-34 144.45,-34 175.89,-34"/>
<polygon fill="black" stroke="black" points="175.96,-37.5 185.96,-34 175.96,-30.5 175.96,-37.5"/>
<text text-anchor="middle" x="131.5" y="-37.8" font-family="Times,serif" font-size="14.00">fileInput</text>
</g>
</g>
</svg>
