<?xml version="1.0" encoding="UTF-8" standalone="no"?>
<!DOCTYPE svg PUBLIC "-//W3C//DTD SVG 1.1//EN"
 "http://www.w3.org/Graphics/SVG/1.1/DTD/svg11.dtd">
<!-- Generated by graphviz version 2.43.0 (0)
 -->
<!-- Title: filter Pages: 1 -->
<svg width="268pt" height="204pt"
 viewBox="0.00 0.00 268.00 204.00" xmlns="http://www.w3.org/2000/svg" xmlns:xlink="http://www.w3.org/1999/xlink">
<g id="graph0" class="graph" transform="scale(1 1) rotate(0) translate(4 200)">
<title>filter</title>
<polygon fill="white" stroke="transparent" points="-4,4 -4,-200 264,-200 264,4 -4,4"/>
<g id="clust1" class="cluster">
<title>cluster_in</title>
<polygon fill="#eeeeee" stroke="#eeeeee" points="8,-8 8,-188 95,-188 95,-8 8,-8"/>
<text text-anchor="middle" x="51.5" y="-175.2" font-family="monospace" font-size="11.00">Node&lt;T&gt;</text>
</g>
<g id="clust2" class="cluster">
<title>cluster_out</title>
<polygon fill="#cfe8ff" stroke="#cfe8ff" points="149,-8 149,-134 260,-134 260,-8 149,-8"/>
<text text-anchor="middle" x="204.5" y="-121.2" font-family="monospace" font-size="11.00">Node&lt;T&gt; (view)</text>
</g>
<!-- iA -->
<g id="node1" class="node">
<title>iA</title>
<polygon fill="none" stroke="black" points="78.5,-160 24.5,-160 24.5,-124 78.5,-124 78.5,-160"/>
<text text-anchor="middle" x="51.5" y="-139.5" font-family="monospace" font-size="10.00">key=a</text>
</g>
<!-- oA -->
<g id="node4" class="node">
<title>oA</title>
<polygon fill="none" stroke="black" points="231,-106 177,-106 177,-70 231,-70 231,-106"/>
<text text-anchor="middle" x="204" y="-85.5" font-family="monospace" font-size="10.00">key=a</text>
</g>
<!-- iA&#45;&gt;oA -->
<g id="edge1" class="edge">
<title>iA&#45;&gt;oA</title>
<path fill="none" stroke="black" stroke-dasharray="5,2" d="M78.72,-132.59C103.24,-123.79 140.08,-110.58 167.29,-100.81"/>
<polygon fill="black" stroke="black" points="168.6,-104.06 176.83,-97.39 166.24,-97.47 168.6,-104.06"/>
<text text-anchor="middle" x="122" y="-125.8" font-family="Times,serif" font-size="14.00">alias</text>
</g>
<!-- iB -->
<g id="node2" class="node">
<title>iB</title>
<polygon fill="none" stroke="#bbbbbb" points="87,-106 16,-106 16,-70 87,-70 87,-106"/>
<text text-anchor="middle" x="51.5" y="-91" font-family="monospace" font-size="10.00" fill="#999999">key=b</text>
<text text-anchor="middle" x="51.5" y="-80" font-family="monospace" font-size="10.00" fill="#999999">(dropped)</text>
</g>
<!-- iC -->
<g id="node3" class="node">
<title>iC</title>
<polygon fill="none" stroke="black" points="78.5,-52 24.5,-52 24.5,-16 78.5,-16 78.5,-52"/>
<text text-anchor="middle" x="51.5" y="-31.5" font-family="monospace" font-size="10.00">key=c</text>
</g>
<!-- oC -->
<g id="node5" class="node">
<title>oC</title>
<polygon fill="none" stroke="black" points="231,-52 177,-52 177,-16 231,-16 231,-52"/>
<text text-anchor="middle" x="204" y="-31.5" font-family="monospace" font-size="10.00">key=c</text>
</g>
<!-- iC&#45;&gt;oC -->
<g id="edge2" class="edge">
<title>iC&#45;&gt;oC</title>
<path fill="none" stroke="black" stroke-dasharray="5,2" d="M78.72,-34C103.03,-34 139.43,-34 166.57,-34"/>
<polygon fill="black" stroke="black" points="166.83,-37.5 176.83,-34 166.83,-30.5 166.83,-37.5"/>
</g>
</g>
</svg>
