<?xml version="1.0" encoding="UTF-8" standalone="no"?>
<!DOCTYPE svg PUBLIC "-//W3C//DTD SVG 1.1//EN"
 "http://www.w3.org/Graphics/SVG/1.1/DTD/svg11.dtd">
<!-- Generated by graphviz version 2.43.0 (0)
 -->
<!-- Title: join Pages: 1 -->
<svg width="266pt" height="204pt"
 viewBox="0.00 0.00 266.00 204.00" xmlns="http://www.w3.org/2000/svg" xmlns:xlink="http://www.w3.org/1999/xlink">
<g id="graph0" class="graph" transform="scale(1 1) rotate(0) translate(4 200)">
<title>join</title>
<polygon fill="white" stroke="transparent" points="-4,4 -4,-200 262,-200 262,4 -4,4"/>
<g id="clust1" class="cluster">
<title>cluster_in</title>
<polygon fill="#eeeeee" stroke="#eeeeee" points="8,-8 8,-188 78,-188 78,-8 8,-8"/>
<text text-anchor="middle" x="43" y="-175.2" font-family="monospace" font-size="11.00">Node&lt;T&gt;</text>
</g>
<g id="clust2" class="cluster">
<title>cluster_out</title>
<polygon fill="#cfe8ff" stroke="#cfe8ff" points="113,-62 113,-134 258,-134 258,-62 113,-62"/>
<text text-anchor="middle" x="185.5" y="-121.2" font-family="monospace" font-size="11.00">Node&lt;U&gt; (singleton)</text>
</g>
<!-- iA -->
<g id="node1" class="node">
<title>iA</title>
<polygon fill="none" stroke="black" points="70,-160 16,-160 16,-124 70,-124 70,-160"/>
<text text-anchor="middle" x="43" y="-139.5" font-family="monospace" font-size="10.00">key=a</text>
</g>
<!-- o0 -->
<g id="node4" class="node">
<title>o0</title>
<polygon fill="none" stroke="black" points="218,-106 153,-106 153,-70 218,-70 218,-106"/>
<text text-anchor="middle" x="185.5" y="-85.5" font-family="monospace" font-size="10.00">key=name</text>
</g>
<!-- iA&#45;&gt;o0 -->
<g id="edge1" class="edge">
<title>iA&#45;&gt;o0</title>
<path fill="none" stroke="black" d="M70.1,-131.97C90.67,-124.06 119.75,-112.89 143.44,-103.78"/>
<polygon fill="black" stroke="black" points="144.81,-107.01 152.88,-100.15 142.29,-100.47 144.81,-107.01"/>
<text text-anchor="middle" x="95.5" y="-127.8" font-family="Times,serif" font-size="14.00">fn</text>
</g>
<!-- iB -->
<g id="node2" class="node">
<title>iB</title>
<polygon fill="none" stroke="black" points="70,-106 16,-106 16,-70 70,-70 70,-106"/>
<text text-anchor="middle" x="43" y="-85.5" font-family="monospace" font-size="10.00">key=b</text>
</g>
<!-- iB&#45;&gt;o0 -->
<g id="edge2" class="edge">
<title>iB&#45;&gt;o0</title>
<path fill="none" stroke="black" d="M70.1,-88C90.49,-88 119.23,-88 142.8,-88"/>
<polygon fill="black" stroke="black" points="142.88,-91.5 152.88,-88 142.88,-84.5 142.88,-91.5"/>
</g>
<!-- iC -->
<g id="node3" class="node">
<title>iC</title>
<polygon fill="none" stroke="black" points="70,-52 16,-52 16,-16 70,-16 70,-52"/>
<text text-anchor="middle" x="43" y="-31.5" font-family="monospace" font-size="10.00">key=c</text>
</g>
<!-- iC&#45;&gt;o0 -->
<g id="edge3" class="edge">
<title>iC&#45;&gt;o0</title>
<path fill="none" stroke="black" d="M70.1,-44.03C90.67,-51.94 119.75,-63.11 143.44,-72.22"/>
<polygon fill="black" stroke="black" points="142.29,-75.53 152.88,-75.85 144.81,-68.99 142.29,-75.53"/>
</g>
</g>
</svg>
