<?xml version="1.0" encoding="UTF-8" standalone="no"?>
<!DOCTYPE svg PUBLIC "-//W3C//DTD SVG 1.1//EN"
 "http://www.w3.org/Graphics/SVG/1.1/DTD/svg11.dtd">
<!-- Generated by graphviz version 2.43.0 (0)
 -->
<!-- Title: map Pages: 1 -->
<svg width="200pt" height="204pt"
 viewBox="0.00 0.00 200.00 204.00" xmlns="http://www.w3.org/2000/svg" xmlns:xlink="http://www.w3.org/1999/xlink">
<g id="graph0" class="graph" transform="scale(1 1) rotate(0) translate(4 200)">
<title>map</title>
<polygon fill="white" stroke="transparent" points="-4,4 -4,-200 196,-200 196,4 -4,4"/>
<g id="clust1" class="cluster">
<title>cluster_in</title>
<polygon fill="#eeeeee" stroke="#eeeeee" points="8,-8 8,-188 79,-188 79,-8 8,-8"/>
<text text-anchor="middle" x="43.5" y="-175.2" font-family="monospace" font-size="11.00">Node&lt;In&gt;</text>
</g>
<g id="clust2" class="cluster">
<title>cluster_out</title>
<polygon fill="#cfe8ff" stroke="#cfe8ff" points="114,-8 114,-188 184,-188 184,-8 114,-8"/>
<text text-anchor="middle" x="149" y="-175.2" font-family="monospace" font-size="11.00">Node&lt;U&gt;</text>
</g>
<!-- iA -->
<g id="node1" class="node">
<title>iA</title>
<polygon fill="none" stroke="black" points="70,-160 16,-160 16,-124 70,-124 70,-160"/>
<text text-anchor="middle" x="43" y="-139.5" font-family="monospace" font-size="10.00">key=a</text>
</g>
<!-- oA -->
<g id="node4" class="node">
<title>oA</title>
<polygon fill="none" stroke="black" points="176,-160 122,-160 122,-124 176,-124 176,-160"/>
<text text-anchor="middle" x="149" y="-139.5" font-family="monospace" font-size="10.00">key=a</text>
</g>
<!-- iA&#45;&gt;oA -->
<g id="edge1" class="edge">
<title>iA&#45;&gt;oA</title>
<path fill="none" stroke="black" d="M70.24,-142C82.81,-142 98.05,-142 111.71,-142"/>
<polygon fill="black" stroke="black" points="111.76,-145.5 121.76,-142 111.76,-138.5 111.76,-145.5"/>
<text text-anchor="middle" x="96.5" y="-145.8" font-family="Times,serif" font-size="14.00">fn</text>
</g>
<!-- iB -->
<g id="node2" class="node">
<title>iB</title>
<polygon fill="none" stroke="black" points="70,-106 16,-106 16,-70 70,-70 70,-106"/>
<text text-anchor="middle" x="43" y="-85.5" font-family="monospace" font-size="10.00">key=b</text>
</g>
<!-- oB -->
<g id="node5" class="node">
<title>oB</title>
<polygon fill="none" stroke="black" points="176,-106 122,-106 122,-70 176,-70 176,-106"/>
<text text-anchor="middle" x="149" y="-85.5" font-family="monospace" font-size="10.00">key=b</text>
</g>
<!-- iB&#45;&gt;oB -->
<g id="edge2" class="edge">
<title>iB&#45;&gt;oB</title>
<path fill="none" stroke="black" d="M70.24,-88C82.81,-88 98.05,-88 111.71,-88"/>
<polygon fill="black" stroke="black" points="111.76,-91.5 121.76,-88 111.76,-84.5 111.76,-91.5"/>
<text text-anchor="middle" x="96.5" y="-91.8" font-family="Times,serif" font-size="14.00">fn</text>
</g>
<!-- iC -->
<g id="node3" class="node">
<title>iC</title>
<polygon fill="none" stroke="black" points="70,-52 16,-52 16,-16 70,-16 70,-52"/>
<text text-anchor="middle" x="43" y="-31.5" font-family="monospace" font-size="10.00">key=c</text>
</g>
<!-- oC -->
<g id="node6" class="node">
<title>oC</title>
<polygon fill="none" stroke="black" points="176,-52 122,-52 122,-16 176,-16 176,-52"/>
<text text-anchor="middle" x="149" y="-31.5" font-family="monospace" font-size="10.00">key=c</text>
</g>
<!-- iC&#45;&gt;oC -->
<g id="edge3" class="edge">
<title>iC&#45;&gt;oC</title>
<path fill="none" stroke="black" d="M70.24,-34C82.81,-34 98.05,-34 111.71,-34"/>
<polygon fill="black" stroke="black" points="111.76,-37.5 121.76,-34 111.76,-30.5 111.76,-37.5"/>
<text text-anchor="middle" x="96.5" y="-37.8" font-family="Times,serif" font-size="14.00">fn</text>
</g>
</g>
</svg>
