<?xml version="1.0" encoding="UTF-8" standalone="no"?>
<!DOCTYPE svg PUBLIC "-//W3C//DTD SVG 1.1//EN"
 "http://www.w3.org/Graphics/SVG/1.1/DTD/svg11.dtd">
<!-- Generated by graphviz version 2.43.0 (0)
 -->
<!-- Title: split Pages: 1 -->
<svg width="273pt" height="204pt"
 viewBox="0.00 0.00 273.00 204.00" xmlns="http://www.w3.org/2000/svg" xmlns:xlink="http://www.w3.org/1999/xlink">
<g id="graph0" class="graph" transform="scale(1 1) rotate(0) translate(4 200)">
<title>split</title>
<polygon fill="white" stroke="transparent" points="-4,4 -4,-200 269,-200 269,4 -4,4"/>
<g id="clust1" class="cluster">
<title>cluster_in</title>
<polygon fill="#eeeeee" stroke="#eeeeee" points="0,-62 0,-134 152,-134 152,-62 0,-62"/>
<text text-anchor="middle" x="76" y="-121.2" font-family="monospace" font-size="11.00">Node&lt;In&gt; (singleton)</text>
</g>
<g id="clust2" class="cluster">
<title>cluster_out</title>
<polygon fill="#cfe8ff" stroke="#cfe8ff" points="187,-8 187,-188 257,-188 257,-8 187,-8"/>
<text text-anchor="middle" x="222" y="-175.2" font-family="monospace" font-size="11.00">Node&lt;U&gt;</text>
</g>
<!-- i0 -->
<g id="node1" class="node">
<title>i0</title>
<polygon fill="none" stroke="black" points="111,-106 40,-106 40,-70 111,-70 111,-106"/>
<text text-anchor="middle" x="75.5" y="-85.5" font-family="monospace" font-size="10.00">key=input</text>
</g>
<!-- oA -->
<g id="node2" class="node">
<title>oA</title>
<polygon fill="none" stroke="black" points="249,-160 195,-160 195,-124 249,-124 249,-160"/>
<text text-anchor="middle" x="222" y="-139.5" font-family="monospace" font-size="10.00">key=a</text>
</g>
<!-- i0&#45;&gt;oA -->
<g id="edge1" class="edge">
<title>i0&#45;&gt;oA</title>
<path fill="none" stroke="black" d="M111.11,-100.93C133.51,-109.31 162.61,-120.18 185.24,-128.64"/>
<polygon fill="black" stroke="black" points="184.22,-131.99 194.81,-132.21 186.67,-125.43 184.22,-131.99"/>
<text text-anchor="middle" x="169.5" y="-127.8" font-family="Times,serif" font-size="14.00">fn</text>
</g>
<!-- oB -->
<g id="node3" class="node">
<title>oB</title>
<polygon fill="none" stroke="black" points="249,-106 195,-106 195,-70 249,-70 249,-106"/>
<text text-anchor="middle" x="222" y="-85.5" font-family="monospace" font-size="10.00">key=b</text>
</g>
<!-- i0&#45;&gt;oB -->
<g id="edge2" class="edge">
<title>i0&#45;&gt;oB</title>
<path fill="none" stroke="black" d="M111.11,-88C133.31,-88 162.09,-88 184.63,-88"/>
<polygon fill="black" stroke="black" points="184.81,-91.5 194.81,-88 184.81,-84.5 184.81,-91.5"/>
</g>
<!-- oC -->
<g id="node4" class="node">
<title>oC</title>
<polygon fill="none" stroke="black" points="249,-52 195,-52 195,-16 249,-16 249,-52"/>
<text text-anchor="middle" x="222" y="-31.5" font-family="monospace" font-size="10.00">key=c</text>
</g>
<!-- i0&#45;&gt;oC -->
<g id="edge3" class="edge">
<title>i0&#45;&gt;oC</title>
<path fill="none" stroke="black" d="M111.11,-75.07C133.51,-66.69 162.61,-55.82 185.24,-47.36"/>
<polygon fill="black" stroke="black" points="186.67,-50.57 194.81,-43.79 184.22,-44.01 186.67,-50.57"/>
</g>
</g>
</svg>
