<svg version="1.1" xmlns="http://www.w3.org/2000/svg" viewBox="0 0 957 212.92857142857144" width="1914" height="425.8571428571429">
  <!-- svg-source:excalidraw -->
  
  <defs>
    <style class="style-fonts">
      @font-face {
        font-family: "Virgil";
        src: url("https://excalidraw.com/Virgil.woff2");
      }
      @font-face {
        font-family: "Cascadia";
        src: url("https://excalidraw.com/Cascadia.woff2");
      }
      @font-face {
        font-family: "Assistant";
        src: url("https://excalidraw.com/Assistant-Regular.woff2");
      }
    </style>
    
  </defs>
  <g stroke-linecap="round" transform="translate(10 75.92857142857144) rotate(0 55 63.5)"><path d="M27.5 0 C38.81 0.06, 54.74 -0.61, 82.5 0 C102.33 -0.7, 107.86 9.11, 110 27.5 C108.92 41.48, 114.09 55.28, 110 99.5 C110.48 116.99, 100.09 125.32, 82.5 127 C69.88 126.83, 53.56 124.43, 27.5 127 C7.03 124.18, -2.39 120.21, 0 99.5 C1.75 68.39, 0.74 41.53, 0 27.5 C-1.65 11.89, 12.74 -1.84, 27.5 0" stroke="none" stroke-width="0" fill="#ffc9c9"></path><path d="M27.5 0 C46.51 -1.55, 68.36 1.05, 82.5 0 M27.5 0 C48.32 -0.3, 70 -0.69, 82.5 0 M82.5 0 C99.6 -1.39, 110.18 7.25, 110 27.5 M82.5 0 C100.38 -1.83, 112.21 10.24, 110 27.5 M110 27.5 C109.8 55.79, 109.24 83.57, 110 99.5 M110 27.5 C109.68 52.31, 109.57 76.99, 110 99.5 M110 99.5 C109.48 118.18, 98.91 125.55, 82.5 127 M110 99.5 C111.73 120.08, 102.12 127.41, 82.5 127 M82.5 127 C66.98 127.3, 53.78 128.16, 27.5 127 M82.5 127 C65.72 127.32, 49.76 127.06, 27.5 127 M27.5 127 C7.52 128.44, -1.64 118.3, 0 99.5 M27.5 127 C8.03 125.08, -1.73 116.65, 0 99.5 M0 99.5 C-1.5 79.24, -1.32 62.97, 0 27.5 M0 99.5 C1.15 70.71, 0.17 42.77, 0 27.5 M0 27.5 C-1.9 10.86, 8.41 -0.46, 27.5 0 M0 27.5 C2.25 10.43, 8.74 -2.29, 27.5 0" stroke="#1e1e1e" stroke-width="1" fill="none"></path></g><g transform="translate(45.459999084472656 114.42857142857144) rotate(0 19.540000915527344 25)"><text x="19.540000915527344" y="17.52" font-family="Virgil, Segoe UI Emoji" font-size="20px" fill="#1e1e1e" text-anchor="middle" style="white-space: pre;" direction="ltr" dominant-baseline="alphabetic">Shim</text><text x="19.540000915527344" y="42.519999999999996" font-family="Virgil, Segoe UI Emoji" font-size="20px" fill="#1e1e1e" text-anchor="middle" style="white-space: pre;" direction="ltr" dominant-baseline="alphabetic">Tile</text></g><g stroke-linecap="round" transform="translate(220 75.42857142857144) rotate(0 55 63.5)"><path d="M27.5 0 C44.36 -1.44, 53.4 -2.82, 82.5 0 C98.78 -0.03, 108.52 11.93, 110 27.5 C112.52 44.55, 108.61 59.3, 110 99.5 C107.83 118.62, 104.17 123.91, 82.5 127 C72.99 129.04, 58.54 127.2, 27.5 127 C9.33 127.47, 3.39 120.04, 0 99.5 C0.84 73.49, -1 55.28, 0 27.5 C-2.77 10.98, 11.18 2.18, 27.5 0" stroke="none" stroke-width="0" fill="#a5d8ff"></path><path d="M27.5 0 C41.85 -0.97, 52.79 0.73, 82.5 0 M27.5 0 C48.1 1.18, 66.3 0.23, 82.5 0 M82.5 0 C100.56 1.38, 108.78 10.61, 110 27.5 M82.5 0 C101.87 2.28, 109.34 11.14, 110 27.5 M110 27.5 C111.46 45.6, 109.47 65.13, 110 99.5 M110 27.5 C109.46 54.11, 108.91 82.11, 110 99.5 M110 99.5 C111.73 117.33, 102.43 126.97, 82.5 127 M110 99.5 C110 116.18, 100.69 128.51, 82.5 127 M82.5 127 C64.63 127.15, 47.38 128.76, 27.5 127 M82.5 127 C65.4 126.71, 47.02 128.14, 27.5 127 M27.5 127 C10.46 127.58, 1.25 117.65, 0 99.5 M27.5 127 C7.54 126.7, -2.08 117.1, 0 99.5 M0 99.5 C-0.78 82.01, 2.08 68.53, 0 27.5 M0 99.5 C-1.12 80.28, -0.34 59.06, 0 27.5 M0 27.5 C1.35 7.84, 7.46 -1.17, 27.5 0 M0 27.5 C-1.22 10.39, 7.47 -1.17, 27.5 0" stroke="#1e1e1e" stroke-width="1" fill="none"></path></g><g transform="translate(255.54000091552734 113.92857142857144) rotate(0 19.459999084472656 25)"><text x="19.459999084472656" y="17.52" font-family="Virgil, Segoe UI Emoji" font-size="20px" fill="#1e1e1e" text-anchor="middle" style="white-space: pre;" direction="ltr" dominant-baseline="alphabetic">Mem</text><text x="19.459999084472656" y="42.519999999999996" font-family="Virgil, Segoe UI Emoji" font-size="20px" fill="#1e1e1e" text-anchor="middle" style="white-space: pre;" direction="ltr" dominant-baseline="alphabetic">Tile</text></g><g stroke-linecap="round" transform="translate(435 75.42857142857144) rotate(0 55 63.5)"><path d="M27.5 0 C39.18 2.64, 52.41 -3.9, 82.5 0 C99.93 1.25, 109.8 9.34, 110 27.5 C110.55 51.44, 112.69 79.21, 110 99.5 C112.81 114.63, 102.73 123.63, 82.5 127 C68.57 128.87, 62.74 127.27, 27.5 127 C7.93 126.93, -1.79 114.34, 0 99.5 C-0.21 70.48, 4.51 45.54, 0 27.5 C-0.81 5.71, 11.04 0.61, 27.5 0" stroke="none" stroke-width="0" fill="#ffec99"></path><path d="M27.5 0 C41.48 0.51, 57.47 1.41, 82.5 0 M27.5 0 C42.36 1.26, 55.92 -0.55, 82.5 0 M82.5 0 C99.85 0.79, 111.18 10.08, 110 27.5 M82.5 0 C100.4 -0.13, 110.1 9.47, 110 27.5 M110 27.5 C112.44 54, 111.63 82.77, 110 99.5 M110 27.5 C110.98 50.25, 111.08 70.92, 110 99.5 M110 99.5 C111.54 117.36, 100.97 126.34, 82.5 127 M110 99.5 C110.37 115.96, 102.2 126.87, 82.5 127 M82.5 127 C64.97 125.98, 46.91 128.37, 27.5 127 M82.5 127 C62.33 127.16, 44.38 127.29, 27.5 127 M27.5 127 C9.12 127.66, -0.12 119.06, 0 99.5 M27.5 127 C11.07 126.01, -0.75 116.38, 0 99.5 M0 99.5 C-1.46 85.77, -0.83 69.58, 0 27.5 M0 99.5 C0.58 73.89, -0.11 46.31, 0 27.5 M0 27.5 C-1.51 10.69, 7.63 -0.32, 27.5 0 M0 27.5 C1.58 8.19, 11.32 2.03, 27.5 0" stroke="#1e1e1e" stroke-width="1" fill="none"></path></g><g transform="translate(449.95999908447266 113.92857142857144) rotate(0 40.040000915527344 25)"><text x="40.040000915527344" y="17.52" font-family="Virgil, Segoe UI Emoji" font-size="20px" fill="#1e1e1e" text-anchor="middle" style="white-space: pre;" direction="ltr" dominant-baseline="alphabetic">Compute</text><text x="40.040000915527344" y="42.519999999999996" font-family="Virgil, Segoe UI Emoji" font-size="20px" fill="#1e1e1e" text-anchor="middle" style="white-space: pre;" direction="ltr" dominant-baseline="alphabetic">Tile 0</text></g><g stroke-linecap="round"><g transform="translate(120 140.92857142857144) rotate(0 49.5 0)"><path d="M0 0 C16.5 0, 82.5 0, 99 0 M0 0 C16.5 0, 82.5 0, 99 0" stroke="#868e96" stroke-width="2" fill="none"></path></g><g transform="translate(120 140.92857142857144) rotate(0 49.5 0)"><path d="M75.51 8.55 C81.59 6.34, 87.67 4.12, 99 0 M75.51 8.55 C80.41 6.77, 85.31 4.98, 99 0" stroke="#868e96" stroke-width="2" fill="none"></path></g><g transform="translate(120 140.92857142857144) rotate(0 49.5 0)"><path d="M75.51 -8.55 C81.59 -6.34, 87.67 -4.12, 99 0 M75.51 -8.55 C80.41 -6.77, 85.31 -4.98, 99 0" stroke="#868e96" stroke-width="2" fill="none"></path></g></g><mask></mask><g stroke-linecap="round"><g transform="translate(332 145.0707819834438) rotate(0 51 -0.24344205601323665)"><path d="M0 0 C17 -0.08, 85 -0.41, 102 -0.49 M0 0 C17 -0.08, 85 -0.41, 102 -0.49" stroke="#868e96" stroke-width="2" fill="none"></path></g><g transform="translate(332 145.0707819834438) rotate(0 51 -0.24344205601323665)"><path d="M78.55 8.18 C86.67 5.18, 94.78 2.18, 102 -0.49 M78.55 8.18 C83.27 6.43, 87.98 4.69, 102 -0.49" stroke="#868e96" stroke-width="2" fill="none"></path></g><g transform="translate(332 145.0707819834438) rotate(0 51 -0.24344205601323665)"><path d="M78.47 -8.93 C86.61 -6, 94.76 -3.08, 102 -0.49 M78.47 -8.93 C83.2 -7.23, 87.93 -5.53, 102 -0.49" stroke="#868e96" stroke-width="2" fill="none"></path></g></g><mask></mask><g transform="translate(136 112.92857142857144) rotate(0 25.520000457763672 12.5)"><text x="0" y="17.52" font-family="Virgil, Segoe UI Emoji" font-size="20px" fill="#868e96" text-anchor="start" style="white-space: pre;" direction="ltr" dominant-baseline="alphabetic">of_in</text></g><g transform="translate(347.4799995422363 122.42857142857144) rotate(0 32.400001525878906 12.5)"><text x="0" y="17.52" font-family="Virgil, Segoe UI Emoji" font-size="20px" fill="#868e96" text-anchor="start" style="white-space: pre;" direction="ltr" dominant-baseline="alphabetic">of_in0</text></g><g stroke-linecap="round" transform="translate(638 74.42857142857144) rotate(0 55 63.5)"><path d="M27.5 0 C41.9 0.84, 62.31 -0.57, 82.5 0 C102.45 -0.06, 108.09 10.54, 110 27.5 C111.42 48.21, 105.7 63.46, 110 99.5 C107.12 116.24, 100.57 128.14, 82.5 127 C66.11 125.39, 53.34 125.43, 27.5 127 C6.84 124.49, 3.44 118.28, 0 99.5 C1.78 77.47, -3.23 52.97, 0 27.5 C-2.59 5.73, 7.93 2.58, 27.5 0" stroke="none" stroke-width="0" fill="#ffec99"></path><path d="M27.5 0 C43.97 0.7, 60.86 -2.19, 82.5 0 M27.5 0 C46.77 -0.65, 66.21 -0.46, 82.5 0 M82.5 0 C99.59 -0.18, 108.05 9.12, 110 27.5 M82.5 0 C100.34 -0.95, 109.6 8.05, 110 27.5 M110 27.5 C108.72 43.41, 112.34 55.13, 110 99.5 M110 27.5 C110.57 54.87, 108.99 82.83, 110 99.5 M110 99.5 C109.6 117.38, 100.23 126.44, 82.5 127 M110 99.5 C107.81 116.25, 103.11 127.86, 82.5 127 M82.5 127 C62.66 126.5, 42.2 127.34, 27.5 127 M82.5 127 C63.93 126.41, 46.04 126.84, 27.5 127 M27.5 127 C10 127.14, 1.32 116.47, 0 99.5 M27.5 127 C8.25 128.74, 0.41 116.52, 0 99.5 M0 99.5 C-0.09 78.14, 0.34 57.02, 0 27.5 M0 99.5 C0.63 78.73, -0.39 59.05, 0 27.5 M0 27.5 C0.94 7.53, 8.92 0.45, 27.5 0 M0 27.5 C-2.14 10.29, 8.26 1, 27.5 0" stroke="#1e1e1e" stroke-width="1" fill="none"></path></g><g transform="translate(652.9599990844727 112.92857142857144) rotate(0 40.040000915527344 25)"><text x="40.040000915527344" y="17.52" font-family="Virgil, Segoe UI Emoji" font-size="20px" fill="#1e1e1e" text-anchor="middle" style="white-space: pre;" direction="ltr" dominant-baseline="alphabetic">Compute</text><text x="40.040000915527344" y="42.519999999999996" font-family="Virgil, Segoe UI Emoji" font-size="20px" fill="#1e1e1e" text-anchor="middle" style="white-space: pre;" direction="ltr" dominant-baseline="alphabetic">Tile 1</text></g><g stroke-linecap="round" transform="translate(837 73.42857142857144) rotate(0 55 63.5)"><path d="M27.5 0 C46.8 1.61, 67.61 -3.01, 82.5 0 C100.18 -0.05, 107.08 9.79, 110 27.5 C111.18 52.61, 107.4 74.15, 110 99.5 C112.55 119.57, 101.23 124.32, 82.5 127 C65.19 124.68, 39.32 129.31, 27.5 127 C9.58 129.74, 3.5 118.33, 0 99.5 C-0.4 74.98, 1.3 43.88, 0 27.5 C-1.89 10.92, 11.98 0.52, 27.5 0" stroke="none" stroke-width="0" fill="#ffec99"></path><path d="M27.5 0 C48.51 -0.98, 65.63 -0.71, 82.5 0 M27.5 0 C39.29 0.55, 50.49 -0.8, 82.5 0 M82.5 0 C101.92 0.83, 109.89 10.95, 110 27.5 M82.5 0 C98.67 -1.88, 109.17 8.34, 110 27.5 M110 27.5 C108.26 52.13, 108.78 77.12, 110 99.5 M110 27.5 C110.88 54.9, 111.1 84.73, 110 99.5 M110 99.5 C110.16 117.92, 100.95 126.87, 82.5 127 M110 99.5 C109.07 118.68, 100.11 126.85, 82.5 127 M82.5 127 C60.78 127.2, 39.88 126.55, 27.5 127 M82.5 127 C69.37 127.67, 57.33 126.48, 27.5 127 M27.5 127 C10.37 128.56, 0.17 116.46, 0 99.5 M27.5 127 C7.95 126.49, -1.91 117.42, 0 99.5 M0 99.5 C0.8 79.2, 1.86 59.6, 0 27.5 M0 99.5 C0.36 79.51, 0.36 57.4, 0 27.5 M0 27.5 C0.83 10.35, 9.32 1.91, 27.5 0 M0 27.5 C1.24 9.74, 8.76 -0.06, 27.5 0" stroke="#1e1e1e" stroke-width="1" fill="none"></path></g><g transform="translate(851.9599990844727 111.92857142857144) rotate(0 40.040000915527344 25)"><text x="40.040000915527344" y="17.52" font-family="Virgil, Segoe UI Emoji" font-size="20px" fill="#1e1e1e" text-anchor="middle" style="white-space: pre;" direction="ltr" dominant-baseline="alphabetic">Compute</text><text x="40.040000915527344" y="42.519999999999996" font-family="Virgil, Segoe UI Emoji" font-size="20px" fill="#1e1e1e" text-anchor="middle" style="white-space: pre;" direction="ltr" dominant-baseline="alphabetic">Tile 2</text></g><g stroke-linecap="round"><g transform="translate(375 101.92857142857144) rotate(0 -0.5 -33)"><path d="M0 0 C-0.17 -11, -0.83 -55, -1 -66 M0 0 C-0.17 -11, -0.83 -55, -1 -66" stroke="#868e96" stroke-width="2" fill="none"></path></g></g><mask></mask><g stroke-linecap="round"><g transform="translate(566.9185143353305 108.2762509934987) rotate(0 34.04074283233473 0)"><path d="M0 0 C11.35 0, 56.73 0, 68.08 0 M0 0 C11.35 0, 56.73 0, 68.08 0" stroke="#868e96" stroke-width="2" fill="none"></path></g><g transform="translate(566.9185143353305 108.2762509934987) rotate(0 34.04074283233473 0)"><path d="M44.59 8.55 C51.77 5.94, 58.95 3.32, 68.08 0 M44.59 8.55 C51.97 5.86, 59.36 3.17, 68.08 0" stroke="#868e96" stroke-width="2" fill="none"></path></g><g transform="translate(566.9185143353305 108.2762509934987) rotate(0 34.04074283233473 0)"><path d="M44.59 -8.55 C51.77 -5.94, 58.95 -3.32, 68.08 0 M44.59 -8.55 C51.97 -5.86, 59.36 -3.17, 68.08 0" stroke="#868e96" stroke-width="2" fill="none"></path></g></g><mask></mask><g stroke-linecap="round"><g transform="translate(373 33.928571428571445) rotate(0 199.5 0.5)"><path d="M0 0 C66.5 0.17, 332.5 0.83, 399 1 M0 0 C66.5 0.17, 332.5 0.83, 399 1" stroke="#868e96" stroke-width="2" fill="none"></path></g></g><mask></mask><g stroke-linecap="round"><g transform="translate(565.2857142857142 61.35714285714289) rotate(0 0.3571428571428896 23.785714285714278)"><path d="M0 0 C0.12 7.93, 0.6 39.64, 0.71 47.57 M0 0 C0.12 7.93, 0.6 39.64, 0.71 47.57" stroke="#868e96" stroke-width="2" fill="none"></path></g></g><mask></mask><g stroke-linecap="round"><g transform="translate(771 34.928571428571445) rotate(0 0 37)"><path d="M0 0 C0 12.33, 0 61.67, 0 74 M0 0 C0 12.33, 0 61.67, 0 74" stroke="#868e96" stroke-width="2" fill="none"></path></g></g><mask></mask><g stroke-linecap="round"><g transform="translate(771.9592571676653 109.92857142857144) rotate(0 34.04074283233467 0)"><path d="M0 0 C11.35 0, 56.73 0, 68.08 0 M0 0 C11.35 0, 56.73 0, 68.08 0" stroke="#868e96" stroke-width="2" fill="none"></path></g><g transform="translate(771.9592571676653 109.92857142857144) rotate(0 34.04074283233467 0)"><path d="M44.59 8.55 C49.97 6.59, 55.36 4.63, 68.08 0 M44.59 8.55 C49.77 6.67, 54.95 4.78, 68.08 0" stroke="#868e96" stroke-width="2" fill="none"></path></g><g transform="translate(771.9592571676653 109.92857142857144) rotate(0 34.04074283233467 0)"><path d="M44.59 -8.55 C49.97 -6.59, 55.36 -4.63, 68.08 0 M44.59 -8.55 C49.77 -6.67, 54.95 -4.78, 68.08 0" stroke="#868e96" stroke-width="2" fill="none"></path></g></g><mask></mask><g transform="translate(449.7428556169783 39.285714285714334) rotate(0 28.229999542236328 12.5)"><text x="0" y="17.52" font-family="Virgil, Segoe UI Emoji" font-size="20px" fill="#868e96" text-anchor="start" style="white-space: pre;" direction="ltr" dominant-baseline="alphabetic">of_in1</text></g><g transform="translate(578.5999984741211 10) rotate(0 32.63999938964844 12.5)"><text x="0" y="17.52" font-family="Virgil, Segoe UI Emoji" font-size="20px" fill="#868e96" text-anchor="start" style="white-space: pre;" direction="ltr" dominant-baseline="alphabetic">of_in2</text></g><g stroke-linecap="round"><g transform="translate(377.5 102.92857142857144) rotate(0 -24 0)"><path d="M0 0 C-8 0, -40 0, -48 0 M0 0 C-8 0, -40 0, -48 0" stroke="#868e96" stroke-width="2" fill="none"></path></g></g><mask></mask><g stroke-linecap="round"><g transform="translate(397.8571428571428 121.21428571428572) rotate(0 -32.92857142857139 0.3571428571428612)"><path d="M0 0 C-10.98 0.12, -54.88 0.6, -65.86 0.71 M0 0 C-10.98 0.12, -54.88 0.6, -65.86 0.71" stroke="#868e96" stroke-width="2" fill="none"></path></g></g><mask></mask><g stroke-linecap="round"><g transform="translate(396.8571428571429 119.28571428571439) rotate(0 -0.3571428571428328 -28.571428571428555)"><path d="M0 0 C-0.12 -9.52, -0.6 -47.62, -0.71 -57.14 M0 0 C-0.12 -9.52, -0.6 -47.62, -0.71 -57.14" stroke="#868e96" stroke-width="2" fill="none"></path></g></g><mask></mask><g stroke-linecap="round"><g transform="translate(565.8571428571428 62.64285714285728) rotate(0 -84.71428571428567 0)"><path d="M0 0 C-28.24 0, -141.19 0, -169.43 0 M0 0 C-28.24 0, -141.19 0, -169.43 0" stroke="#868e96" stroke-width="2" fill="none"></path></g></g><mask></mask></svg>