<svg version="1.1" xmlns="http://www.w3.org/2000/svg" viewBox="0 0 362.1428571428571 147.28571428571422" width="724.2857142857142" height="294.57142857142844">
  <!-- svg-source:excalidraw -->
  
  <defs>
    <style class="style-fonts">
      @font-face {
        font-family: "Virgil";
        src: url("https://excalidraw.com/Virgil.woff2");
      }
      @font-face {
        font-family: "Cascadia";
        src: url("https://excalidraw.com/Cascadia.woff2");
      }
      @font-face {
        font-family: "Assistant";
        src: url("https://excalidraw.com/Assistant-Regular.woff2");
      }
    </style>
    
  </defs>
  <g stroke-linecap="round" transform="translate(242.1428571428571 10.28571428571422) rotate(0 55 63.5)"><path d="M27.5 0 C39.18 2.64, 52.41 -3.9, 82.5 0 C99.93 1.25, 109.8 9.34, 110 27.5 C110.55 51.44, 112.69 79.21, 110 99.5 C112.81 114.63, 102.73 123.63, 82.5 127 C68.57 128.87, 62.74 127.27, 27.5 127 C7.93 126.93, -1.79 114.34, 0 99.5 C-0.21 70.48, 4.51 45.54, 0 27.5 C-0.81 5.71, 11.04 0.61, 27.5 0" stroke="none" stroke-width="0" fill="#ffec99"></path><path d="M27.5 0 C41.48 0.51, 57.47 1.41, 82.5 0 M27.5 0 C42.36 1.26, 55.92 -0.55, 82.5 0 M82.5 0 C99.85 0.79, 111.18 10.08, 110 27.5 M82.5 0 C100.4 -0.13, 110.1 9.47, 110 27.5 M110 27.5 C112.44 54, 111.63 82.77, 110 99.5 M110 27.5 C110.98 50.25, 111.08 70.92, 110 99.5 M110 99.5 C111.54 117.36, 100.97 126.34, 82.5 127 M110 99.5 C110.37 115.96, 102.2 126.87, 82.5 127 M82.5 127 C64.97 125.98, 46.91 128.37, 27.5 127 M82.5 127 C62.33 127.16, 44.38 127.29, 27.5 127 M27.5 127 C9.12 127.66, -0.12 119.06, 0 99.5 M27.5 127 C11.07 126.01, -0.75 116.38, 0 99.5 M0 99.5 C-1.46 85.77, -0.83 69.58, 0 27.5 M0 99.5 C0.58 73.89, -0.11 46.31, 0 27.5 M0 27.5 C-1.51 10.69, 7.63 -0.32, 27.5 0 M0 27.5 C1.58 8.19, 11.32 2.03, 27.5 0" stroke="#1e1e1e" stroke-width="1" fill="none"></path></g><g transform="translate(257.10285622732977 48.78571428571422) rotate(0 40.040000915527344 25)"><text x="40.040000915527344" y="17.52" font-family="Virgil, Segoe UI Emoji" font-size="20px" fill="#1e1e1e" text-anchor="middle" style="white-space: pre;" direction="ltr" dominant-baseline="alphabetic">Compute</text><text x="40.040000915527344" y="42.519999999999996" font-family="Virgil, Segoe UI Emoji" font-size="20px" fill="#1e1e1e" text-anchor="middle" style="white-space: pre;" direction="ltr" dominant-baseline="alphabetic">Tile 2</text></g><g stroke-linecap="round"><g transform="translate(120.00000000000011 57.96674001408934) rotate(0 58.0714285714285 -0.16013713037281718)"><path d="M0 0 C19.36 -0.05, 96.79 -0.27, 116.14 -0.32 M0 0 C19.36 -0.05, 96.79 -0.27, 116.14 -0.32" stroke="#868e96" stroke-width="2" fill="none"></path></g><g transform="translate(120.00000000000011 57.96674001408934) rotate(0 58.0714285714285 -0.16013713037281718)"><path d="M92.67 8.29 C98.75 6.07, 104.82 3.84, 116.14 -0.32 M92.67 8.29 C97.57 6.5, 102.46 4.7, 116.14 -0.32" stroke="#868e96" stroke-width="2" fill="none"></path></g><g transform="translate(120.00000000000011 57.96674001408934) rotate(0 58.0714285714285 -0.16013713037281718)"><path d="M92.63 -8.81 C98.71 -6.61, 104.8 -4.41, 116.14 -0.32 M92.63 -8.81 C97.53 -7.04, 102.44 -5.27, 116.14 -0.32" stroke="#868e96" stroke-width="2" fill="none"></path></g></g><mask></mask><g transform="translate(148.1428571428571 28.78571428571422) rotate(0 25.520000457763672 12.5)"><text x="0" y="17.52" font-family="Virgil, Segoe UI Emoji" font-size="20px" fill="#868e96" text-anchor="start" style="white-space: pre;" direction="ltr" dominant-baseline="alphabetic">of_in</text></g><g stroke-linecap="round" transform="translate(10 10) rotate(0 55 63.5)"><path d="M27.5 0 C40.34 0.26, 48.8 -3.46, 82.5 0 C98.47 -1.23, 109.63 9.83, 110 27.5 C107.33 39.66, 107.01 59.41, 110 99.5 C112.76 116.19, 97.56 125.11, 82.5 127 C63.86 125.99, 49.96 123.33, 27.5 127 C10.63 123.59, 2.02 116.64, 0 99.5 C1.3 77.16, 0.39 47.38, 0 27.5 C2.03 10.14, 6.32 1.44, 27.5 0" stroke="none" stroke-width="0" fill="#ffc9c9"></path><path d="M27.5 0 C39.46 -1.21, 54.28 1.31, 82.5 0 M27.5 0 C42.76 0.58, 56.3 0.61, 82.5 0 M82.5 0 C99.95 0.52, 109.41 10.38, 110 27.5 M82.5 0 C101.44 1.21, 109.73 7.73, 110 27.5 M110 27.5 C108.36 43.94, 108.26 55.25, 110 99.5 M110 27.5 C108.81 50.25, 108.98 71.04, 110 99.5 M110 99.5 C110.76 118.82, 98.89 126.36, 82.5 127 M110 99.5 C108.61 116.47, 102.05 128.99, 82.5 127 M82.5 127 C64.81 125.79, 43.56 128.34, 27.5 127 M82.5 127 C64.12 126.13, 43.42 126.75, 27.5 127 M27.5 127 C11.06 127.94, -0.54 116.36, 0 99.5 M27.5 127 C7.73 126.55, 0.98 116.74, 0 99.5 M0 99.5 C-1.01 72.42, -0.14 43.67, 0 27.5 M0 99.5 C0.89 77.44, 1.02 52.71, 0 27.5 M0 27.5 C1.84 10.67, 10.91 -0.24, 27.5 0 M0 27.5 C-0.67 8.4, 8.14 -1.84, 27.5 0" stroke="#1e1e1e" stroke-width="1" fill="none"></path></g><g transform="translate(45.459999084472656 48.5) rotate(0 19.540000915527344 25)"><text x="19.540000915527344" y="17.52" font-family="Virgil, Segoe UI Emoji" font-size="20px" fill="#1e1e1e" text-anchor="middle" style="white-space: pre;" direction="ltr" dominant-baseline="alphabetic">Shim</text><text x="19.540000915527344" y="42.519999999999996" font-family="Virgil, Segoe UI Emoji" font-size="20px" fill="#1e1e1e" text-anchor="middle" style="white-space: pre;" direction="ltr" dominant-baseline="alphabetic">Tile</text></g><g stroke-linecap="round"><g transform="translate(235.92857142857144 98.09051286418753) rotate(0 -58.4285714285715 0.3398628696271828)"><path d="M0 0 C-19.48 0.11, -97.38 0.57, -116.86 0.68 M0 0 C-19.48 0.11, -97.38 0.57, -116.86 0.68" stroke="#868e96" stroke-width="2" fill="none"></path></g><g transform="translate(235.92857142857144 98.09051286418753) rotate(0 -58.4285714285715 0.3398628696271828)"><path d="M-93.41 -8.01 C-100.58 -5.35, -107.74 -2.7, -116.86 0.68 M-93.41 -8.01 C-101.99 -4.83, -110.56 -1.65, -116.86 0.68" stroke="#868e96" stroke-width="2" fill="none"></path></g><g transform="translate(235.92857142857144 98.09051286418753) rotate(0 -58.4285714285715 0.3398628696271828)"><path d="M-93.32 9.09 C-100.51 6.52, -107.7 3.95, -116.86 0.68 M-93.32 9.09 C-101.92 6.02, -110.53 2.94, -116.86 0.68" stroke="#868e96" stroke-width="2" fill="none"></path></g></g><mask></mask><g transform="translate(143.07142857142856 106.90948713581236) rotate(0 35.53000259399414 12.5)"><text x="0" y="17.52" font-family="Virgil, Segoe UI Emoji" font-size="20px" fill="#868e96" text-anchor="start" style="white-space: pre;" direction="ltr" dominant-baseline="alphabetic">of_out</text></g></svg>