<svg version="1.1" xmlns="http://www.w3.org/2000/svg" viewBox="0 0 531 202.0000000000001" width="1062" height="404.0000000000002">
  <!-- svg-source:excalidraw -->
  
  <defs>
    <style class="style-fonts">
      @font-face {
        font-family: "Virgil";
        src: url("https://excalidraw.com/Virgil.woff2");
      }
      @font-face {
        font-family: "Cascadia";
        src: url("https://excalidraw.com/Cascadia.woff2");
      }
      @font-face {
        font-family: "Assistant";
        src: url("https://excalidraw.com/Assistant-Regular.woff2");
      }
    </style>
    
  </defs>
  <g stroke-linecap="round" transform="translate(10 36.00000000000006) rotate(0 55 63.5)"><path d="M27.5 0 C42.81 -2.29, 62.08 0.56, 82.5 0 C98.21 -0.85, 112.38 10.47, 110 27.5 C109.44 47.97, 108.24 66.46, 110 99.5 C112.25 115.08, 102.32 126.36, 82.5 127 C59.54 124.7, 42.19 124.63, 27.5 127 C11.94 128.38, 1.04 120.54, 0 99.5 C-1.16 71.6, 1.81 48.16, 0 27.5 C-0.29 7.8, 11.3 -0.71, 27.5 0" stroke="none" stroke-width="0" fill="#ffec99"></path><path d="M27.5 0 C46.57 -2.03, 65.63 0.61, 82.5 0 M27.5 0 C45.09 -0.28, 61.18 -0.97, 82.5 0 M82.5 0 C102.1 1.12, 110 9.54, 110 27.5 M82.5 0 C102.65 -0.35, 109.13 9.3, 110 27.5 M110 27.5 C112.34 45.91, 109.1 68.13, 110 99.5 M110 27.5 C110.28 55.13, 110.77 83.84, 110 99.5 M110 99.5 C111.78 118.34, 99.93 126.82, 82.5 127 M110 99.5 C108.35 118.03, 102.52 125.15, 82.5 127 M82.5 127 C62.8 125.93, 46.26 124.94, 27.5 127 M82.5 127 C63.77 126.56, 45.34 127.79, 27.5 127 M27.5 127 C8.71 128.19, 1.96 119.82, 0 99.5 M27.5 127 C7.06 125.89, -2 118.15, 0 99.5 M0 99.5 C-1.82 70.93, 1.35 41.2, 0 27.5 M0 99.5 C0.57 76.5, 0.6 52.91, 0 27.5 M0 27.5 C1.2 9.17, 9.5 -0.55, 27.5 0 M0 27.5 C1.73 9.64, 9.59 1.29, 27.5 0" stroke="#1e1e1e" stroke-width="1" fill="none"></path></g><g transform="translate(46.670000076293945 74.50000000000006) rotate(0 18.329999923706055 25)"><text x="18.329999923706055" y="17.52" font-family="Virgil, Segoe UI Emoji" font-size="20px" fill="#1e1e1e" text-anchor="middle" style="white-space: pre;" direction="ltr" dominant-baseline="alphabetic">Tile</text><text x="18.329999923706055" y="42.519999999999996" font-family="Virgil, Segoe UI Emoji" font-size="20px" fill="#1e1e1e" text-anchor="middle" style="white-space: pre;" direction="ltr" dominant-baseline="alphabetic">A</text></g><g stroke-linecap="round"><g transform="translate(122.25 94.99442723935249) rotate(0 37.75 0.052493000246386146)"><path d="M0 0 C12.58 0.02, 62.92 0.09, 75.5 0.1 M0 0 C12.58 0.02, 62.92 0.09, 75.5 0.1" stroke="#868e96" stroke-width="2" fill="none"></path></g><g transform="translate(122.25 94.99442723935249) rotate(0 37.75 0.052493000246386146)"><path d="M52 8.62 C58.42 6.29, 64.84 3.97, 75.5 0.1 M52 8.62 C60.45 5.56, 68.89 2.5, 75.5 0.1" stroke="#868e96" stroke-width="2" fill="none"></path></g><g transform="translate(122.25 94.99442723935249) rotate(0 37.75 0.052493000246386146)"><path d="M52.02 -8.48 C58.44 -6.13, 64.85 -3.79, 75.5 0.1 M52.02 -8.48 C60.46 -5.39, 68.9 -2.31, 75.5 0.1" stroke="#868e96" stroke-width="2" fill="none"></path></g></g><mask></mask><g stroke-linecap="round" transform="translate(200 10) rotate(0 65 91.00000000000006)"><path d="M32 0 C60.96 -1.65, 84.49 2.21, 98 0 C122.47 2.73, 127.74 13.92, 130 32 C130.42 64.54, 133.63 102.7, 130 150 C132.02 174.77, 119 182.57, 98 182 C86.93 182.61, 72.49 180.64, 32 182 C8.92 178.8, -0.37 173.22, 0 150 C-1.97 101.45, 3.21 61.02, 0 32 C2.61 13.66, 10.32 -0.57, 32 0" stroke="none" stroke-width="0" fill="#e9ecef"></path><path d="M32 0 C44.65 -0.78, 60.36 -0.85, 98 0 M32 0 C51.97 0.08, 71.63 -0.71, 98 0 M98 0 C118.85 1.55, 131.32 8.71, 130 32 M98 0 C118.13 -0.77, 128.77 9.25, 130 32 M130 32 C132.26 66.95, 129.74 98.62, 130 150 M130 32 C129.36 76.15, 128.47 122.12, 130 150 M130 150 C129.69 169.64, 118.79 181.56, 98 182 M130 150 C129.74 170.18, 121.04 181.51, 98 182 M98 182 C80.12 182.67, 60.27 182.65, 32 182 M98 182 C74.7 182, 49.78 181.5, 32 182 M32 182 C10.81 183.19, -0.14 173.09, 0 150 M32 182 C12.92 181.36, -1.93 169.04, 0 150 M0 150 C-2.13 105.79, -0.01 64.85, 0 32 M0 150 C-0.55 121.41, 0.47 93.18, 0 32 M0 32 C-0.99 9.08, 8.7 0.37, 32 0 M0 32 C-1.6 10.25, 11.15 0.07, 32 0" stroke="#1e1e1e" stroke-width="1" fill="none"></path></g><g stroke-linecap="round" transform="translate(411 33.00000000000006) rotate(0 55 63.5)"><path d="M27.5 0 C42.1 3.21, 63.1 -2.67, 82.5 0 C101.21 2.68, 109.33 12.01, 110 27.5 C111.98 47.21, 106.97 63.54, 110 99.5 C113.38 119.81, 104.06 128.74, 82.5 127 C72.88 128.29, 62.21 128.89, 27.5 127 C9.74 126.96, -1.9 116.75, 0 99.5 C1.59 78.26, 2.15 55.12, 0 27.5 C0.87 11.14, 11.29 2.55, 27.5 0" stroke="none" stroke-width="0" fill="#ffec99"></path><path d="M27.5 0 C44.7 -1.93, 63.2 1.14, 82.5 0 M27.5 0 C43.07 -0.31, 59.42 0.31, 82.5 0 M82.5 0 C99.13 0, 109.54 7.31, 110 27.5 M82.5 0 C99.35 -1.24, 110.99 9.23, 110 27.5 M110 27.5 C110.46 52.72, 111.55 74.63, 110 99.5 M110 27.5 C109.92 48.84, 108.82 72.38, 110 99.5 M110 99.5 C108.15 119.17, 102.28 128.35, 82.5 127 M110 99.5 C108.43 119.51, 98.91 129.24, 82.5 127 M82.5 127 C62.86 124.76, 46.95 124.76, 27.5 127 M82.5 127 C60.84 126.38, 41.7 125.81, 27.5 127 M27.5 127 C10.48 126.91, -0.59 119.53, 0 99.5 M27.5 127 C7.88 128.01, -0.95 119.07, 0 99.5 M0 99.5 C-0.17 75.61, 2.07 47.58, 0 27.5 M0 99.5 C0.55 82.39, -0.55 66.28, 0 27.5 M0 27.5 C-1.94 7.34, 10.38 1.23, 27.5 0 M0 27.5 C0.57 8.14, 10.84 -0.61, 27.5 0" stroke="#1e1e1e" stroke-width="1" fill="none"></path></g><g transform="translate(447.67000007629395 71.50000000000006) rotate(0 18.329999923706055 25)"><text x="18.329999923706055" y="17.52" font-family="Virgil, Segoe UI Emoji" font-size="20px" fill="#1e1e1e" text-anchor="middle" style="white-space: pre;" direction="ltr" dominant-baseline="alphabetic">Tile</text><text x="18.329999923706055" y="42.519999999999996" font-family="Virgil, Segoe UI Emoji" font-size="20px" fill="#1e1e1e" text-anchor="middle" style="white-space: pre;" direction="ltr" dominant-baseline="alphabetic">B</text></g><g stroke-linecap="round"><g transform="translate(331.2500000000001 96.33914782352599) rotate(0 38.25 0.0011981098147657576)"><path d="M0 0 C12.75 0, 63.75 0, 76.5 0 M0 0 C12.75 0, 63.75 0, 76.5 0" stroke="#868e96" stroke-width="2" fill="none"></path></g><g transform="translate(331.2500000000001 96.33914782352599) rotate(0 38.25 0.0011981098147657576)"><path d="M53.01 8.55 C61.37 5.51, 69.73 2.47, 76.5 0 M53.01 8.55 C59.52 6.18, 66.02 3.82, 76.5 0" stroke="#868e96" stroke-width="2" fill="none"></path></g><g transform="translate(331.2500000000001 96.33914782352599) rotate(0 38.25 0.0011981098147657576)"><path d="M53.01 -8.55 C61.37 -5.51, 69.73 -2.46, 76.5 0 M53.01 -8.55 C59.52 -6.18, 66.02 -3.81, 76.5 0" stroke="#868e96" stroke-width="2" fill="none"></path></g></g><mask></mask><g stroke-linecap="round" transform="translate(220.5 22.964285714285836) rotate(0 44.5 23.5)"><path d="M11.75 0 C28.12 -3.78, 40.43 0.29, 77.25 0 C87.96 -3.16, 87.87 0.78, 89 11.75 C89.37 20.87, 86.52 29.44, 89 35.25 C87.21 41.77, 83.15 45.14, 77.25 47 C58.93 50.33, 40.25 44.26, 11.75 47 C2.64 48.35, -2.49 46.61, 0 35.25 C3.62 27.09, -2.2 24.32, 0 11.75 C1.67 0.71, 5.68 -1.92, 11.75 0" stroke="none" stroke-width="0" fill="#868e96"></path><path d="M11.75 0 C29.91 -0.67, 49.19 -1.5, 77.25 0 M11.75 0 C34.53 -0.51, 57.89 -0.77, 77.25 0 M77.25 0 C85.41 1.11, 87.4 2.29, 89 11.75 M77.25 0 C83.26 1.7, 91.1 3.96, 89 11.75 M89 11.75 C87.58 18.47, 87.5 23.07, 89 35.25 M89 11.75 C89.17 17.41, 88.6 23.61, 89 35.25 M89 35.25 C90.82 42.86, 86.22 48.13, 77.25 47 M89 35.25 C88.03 42.79, 84.4 48.48, 77.25 47 M77.25 47 C56.02 47.8, 35.36 46.08, 11.75 47 M77.25 47 C60.13 47.7, 43.7 46.56, 11.75 47 M11.75 47 C1.99 46.04, 1.65 43.44, 0 35.25 M11.75 47 C3.59 45.52, 1.29 43.73, 0 35.25 M0 35.25 C-0.07 28.75, 1.45 22.47, 0 11.75 M0 35.25 C0.81 27.57, -0.5 21.05, 0 11.75 M0 11.75 C0.8 4.57, 3.57 -1.07, 11.75 0 M0 11.75 C-0.5 2.33, 6.14 -0.3, 11.75 0" stroke="#1e1e1e" stroke-width="1" fill="none"></path></g><g transform="translate(231.8479995727539 36.464285714285836) rotate(0 33.152000427246094 10)"><text x="33.152000427246094" y="14.016" font-family="Virgil, Segoe UI Emoji" font-size="16px" fill="#1e1e1e" text-anchor="middle" style="white-space: pre;" direction="ltr" dominant-baseline="alphabetic">256xi32</text></g><g stroke-linecap="round" transform="translate(221.5 79.96428571428584) rotate(0 44.5 23.5)"><path d="M11.75 0 C38.39 -0.25, 58.48 3.03, 77.25 0 C82.73 1.95, 85.99 3.69, 89 11.75 C88.79 15.15, 87.06 22.7, 89 35.25 C87.44 43.71, 84.47 48.89, 77.25 47 C54.64 42.92, 27.55 43.69, 11.75 47 C4.54 48.56, -2.88 45.02, 0 35.25 C-1.29 25.44, 1.35 17.49, 0 11.75 C2.91 5.41, 5.43 0.38, 11.75 0" stroke="none" stroke-width="0" fill="#868e96"></path><path d="M11.75 0 C31.53 1.01, 51.24 0.67, 77.25 0 M11.75 0 C32 -0.4, 49.79 -0.92, 77.25 0 M77.25 0 C84.09 -0.94, 89.8 4.03, 89 11.75 M77.25 0 C83.22 -1.62, 87.33 5.48, 89 11.75 M89 11.75 C89.06 16.02, 87.85 21.28, 89 35.25 M89 11.75 C88.55 20.06, 87.98 27.76, 89 35.25 M89 35.25 C90.53 41.5, 84.07 48.12, 77.25 47 M89 35.25 C90.27 44.71, 86.26 49.28, 77.25 47 M77.25 47 C57.8 48.36, 41.48 47.59, 11.75 47 M77.25 47 C59.73 46.53, 39.79 46.46, 11.75 47 M11.75 47 C5.04 46.9, 0.29 41.79, 0 35.25 M11.75 47 C2.51 48.02, -0.82 45.01, 0 35.25 M0 35.25 C-0.8 27.1, -1.87 17.17, 0 11.75 M0 35.25 C0.59 26.62, -0.36 18.42, 0 11.75 M0 11.75 C-1.85 2.37, 3.26 -1.29, 11.75 0 M0 11.75 C0.05 6.17, 3.63 0.86, 11.75 0" stroke="#1e1e1e" stroke-width="1" fill="none"></path></g><g transform="translate(232.8479995727539 93.46428571428584) rotate(0 33.152000427246094 10)"><text x="33.152000427246094" y="14.016" font-family="Virgil, Segoe UI Emoji" font-size="16px" fill="#1e1e1e" text-anchor="middle" style="white-space: pre;" direction="ltr" dominant-baseline="alphabetic">256xi32</text></g><g stroke-linecap="round" transform="translate(221.5 134.9642857142859) rotate(0 44.5 23.5)"><path d="M11.75 0 C33.21 0.67, 51.03 -2.97, 77.25 0 C83.01 -0.77, 91.99 6.53, 89 11.75 C91.46 16.1, 88.5 24.33, 89 35.25 C91.39 41.27, 86.1 45.67, 77.25 47 C61 49.85, 45.54 51.14, 11.75 47 C6.49 45.57, 1.95 45.15, 0 35.25 C-0.36 26.24, -2.75 25.45, 0 11.75 C-1.43 2.4, 6.38 -1.38, 11.75 0" stroke="none" stroke-width="0" fill="#868e96"></path><path d="M11.75 0 C31.14 -0.06, 48.85 -1.39, 77.25 0 M11.75 0 C34.18 -0.47, 56.44 0.03, 77.25 0 M77.25 0 C87.04 -1.46, 90.77 4.39, 89 11.75 M77.25 0 C83.03 -1.69, 87.83 5.07, 89 11.75 M89 11.75 C88.23 22.44, 87.61 29, 89 35.25 M89 11.75 C88.44 19.65, 89.13 26.59, 89 35.25 M89 35.25 C87.52 43.3, 84.57 46.93, 77.25 47 M89 35.25 C88.09 44.38, 83.87 45.23, 77.25 47 M77.25 47 C57.76 45.72, 39.28 45.72, 11.75 47 M77.25 47 C53.01 47.4, 27.92 47.75, 11.75 47 M11.75 47 C3.54 48.66, 1.87 41.78, 0 35.25 M11.75 47 C6.03 47.44, -1.03 41.83, 0 35.25 M0 35.25 C-0.19 28.25, -1.14 20.6, 0 11.75 M0 35.25 C0.61 29.8, -0.07 25.34, 0 11.75 M0 11.75 C1.13 3.67, 3.3 -0.08, 11.75 0 M0 11.75 C-0.66 5.55, 3.8 1.45, 11.75 0" stroke="#1e1e1e" stroke-width="1" fill="none"></path></g><g transform="translate(232.8479995727539 148.4642857142859) rotate(0 33.152000427246094 10)"><text x="33.152000427246094" y="14.016" font-family="Virgil, Segoe UI Emoji" font-size="16px" fill="#1e1e1e" text-anchor="middle" style="white-space: pre;" direction="ltr" dominant-baseline="alphabetic">256xi32</text></g></svg>