<svg version="1.1" xmlns="http://www.w3.org/2000/svg" viewBox="0 0 409.25099033697524 152.0322664866849" width="818.5019806739505" height="304.0645329733698">
  <!-- svg-source:excalidraw -->
  
  <defs>
    <style class="style-fonts">
      @font-face {
        font-family: "Virgil";
        src: url("https://excalidraw.com/Virgil.woff2");
      }
      @font-face {
        font-family: "Cascadia";
        src: url("https://excalidraw.com/Cascadia.woff2");
      }
      @font-face {
        font-family: "Assistant";
        src: url("https://excalidraw.com/Assistant-Regular.woff2");
      }
    </style>
    
  </defs>
  <g stroke-linecap="round" transform="translate(10 10) rotate(0 46.18966127814076 64.71655730070198)"><path d="M23.09 0 C38.63 1.03, 53.64 -3.56, 69.28 0 C85.41 2.68, 93.89 7.58, 92.38 23.09 C95.94 52.02, 95.05 81.18, 92.38 106.34 C93.65 124.62, 84.54 128.16, 69.28 129.43 C56.57 126.7, 40.23 130.43, 23.09 129.43 C9.65 125.91, 0.42 118.5, 0 106.34 C2.29 75.17, -0.91 48.84, 0 23.09 C-0.98 6.11, 10.71 1.78, 23.09 0" stroke="none" stroke-width="0" fill="#ffc9c9"></path><path d="M23.09 0 C38.16 -0.36, 51.97 -1.08, 69.28 0 M23.09 0 C37.41 -0.41, 52.97 0.09, 69.28 0 M69.28 0 C85.9 1.77, 91.92 9.69, 92.38 23.09 M69.28 0 C86.19 -0.59, 94.09 7.28, 92.38 23.09 M92.38 23.09 C90.79 46.99, 94.35 73.74, 92.38 106.34 M92.38 23.09 C92.05 39.02, 92.05 56.65, 92.38 106.34 M92.38 106.34 C90.68 123.25, 85.69 130.12, 69.28 129.43 M92.38 106.34 C92.37 122.91, 83.11 130.88, 69.28 129.43 M69.28 129.43 C59.03 130.22, 46.25 128.19, 23.09 129.43 M69.28 129.43 C52.19 130.43, 34.95 128.91, 23.09 129.43 M23.09 129.43 C8.94 130.86, 1.23 121.72, 0 106.34 M23.09 129.43 C6.49 130.44, 1.57 120.67, 0 106.34 M0 106.34 C-1.45 86.82, 2.11 62.95, 0 23.09 M0 106.34 C0.31 83.12, -0.46 59.81, 0 23.09 M0 23.09 C-0.77 7.06, 8.12 -1.99, 23.09 0 M0 23.09 C-0.19 8.92, 6.7 -1.58, 23.09 0" stroke="#343a40" stroke-width="2" fill="none"></path></g><g transform="translate(31.649660362613417 49.716557300701965) rotate(0 24.540000915527344 25)"><text x="24.540000915527344" y="17.52" font-family="Virgil, Segoe UI Emoji" font-size="20px" fill="#343a40" text-anchor="middle" style="white-space: pre;" direction="ltr" dominant-baseline="alphabetic">Shim </text><text x="24.540000915527344" y="42.519999999999996" font-family="Virgil, Segoe UI Emoji" font-size="20px" fill="#343a40" text-anchor="middle" style="white-space: pre;" direction="ltr" dominant-baseline="alphabetic">Tile</text></g><g stroke-linecap="round" transform="translate(306.8716677806937 12.599151885280975) rotate(0 46.18966127814076 64.71655730070196)"><path d="M23.09 0 C38.01 -3.4, 57.16 2.33, 69.28 0 C86.19 -0.12, 94.53 9.36, 92.38 23.09 C95.56 46.36, 94.85 76.08, 92.38 106.34 C92.24 120.46, 85.82 128.02, 69.28 129.43 C58.82 130.2, 47.17 125.36, 23.09 129.43 C8.11 126.2, 1.62 121.63, 0 106.34 C-1.89 81.3, -1.91 54.76, 0 23.09 C3.02 9.48, 4.71 -3.23, 23.09 0" stroke="none" stroke-width="0" fill="#ffec99"></path><path d="M23.09 0 C39.67 -0.65, 60.31 0.12, 69.28 0 M23.09 0 C36.72 0.26, 50.79 1.09, 69.28 0 M69.28 0 C84.22 1.99, 93.7 7.18, 92.38 23.09 M69.28 0 C86.39 -0.41, 92.21 8.18, 92.38 23.09 M92.38 23.09 C93.44 55.07, 89.67 84.15, 92.38 106.34 M92.38 23.09 C91.08 56, 90.94 89.59, 92.38 106.34 M92.38 106.34 C93.39 122.42, 84.67 130.45, 69.28 129.43 M92.38 106.34 C90.8 123.18, 83.03 130.98, 69.28 129.43 M69.28 129.43 C53.94 128.43, 43.89 131.21, 23.09 129.43 M69.28 129.43 C51.13 128.78, 34.1 130.42, 23.09 129.43 M23.09 129.43 C8.93 129.42, -1.05 122.61, 0 106.34 M23.09 129.43 C9.27 128.37, -1.07 121.03, 0 106.34 M0 106.34 C2.56 86.81, 0.28 70.08, 0 23.09 M0 106.34 C-0.69 88.46, -0.79 70.66, 0 23.09 M0 23.09 C0.42 5.71, 7.53 1.07, 23.09 0 M0 23.09 C-1 6.11, 8.84 -0.91, 23.09 0" stroke="#343a40" stroke-width="2" fill="none"></path></g><g transform="translate(313.02132814330713 52.31570918598297) rotate(0 40.040000915527344 25)"><text x="40.040000915527344" y="17.52" font-family="Virgil, Segoe UI Emoji" font-size="20px" fill="#343a40" text-anchor="middle" style="white-space: pre;" direction="ltr" dominant-baseline="alphabetic">Compute</text><text x="40.040000915527344" y="42.519999999999996" font-family="Virgil, Segoe UI Emoji" font-size="20px" fill="#343a40" text-anchor="middle" style="white-space: pre;" direction="ltr" dominant-baseline="alphabetic">Tile</text></g><g stroke-linecap="round"><g transform="translate(103.37932255628152 48.12627928094295) rotate(0 100.6102340205073 -0.020669662864577276)"><path d="M0 0 C33.54 -0.01, 167.68 -0.03, 201.22 -0.04 M0 0 C33.54 -0.01, 167.68 -0.03, 201.22 -0.04" stroke="#343a40" stroke-width="2" fill="none"></path></g><g transform="translate(103.37932255628152 48.12627928094295) rotate(0 100.6102340205073 -0.020669662864577276)"><path d="M177.73 8.51 C186.59 5.29, 195.45 2.06, 201.22 -0.04 M177.73 8.51 C184.41 6.08, 191.1 3.65, 201.22 -0.04" stroke="#343a40" stroke-width="2" fill="none"></path></g><g transform="translate(103.37932255628152 48.12627928094295) rotate(0 100.6102340205073 -0.020669662864577276)"><path d="M177.73 -8.59 C186.59 -5.36, 195.45 -2.14, 201.22 -0.04 M177.73 -8.59 C184.41 -6.16, 191.1 -3.72, 201.22 -0.04" stroke="#343a40" stroke-width="2" fill="none"></path></g></g><mask></mask><g stroke-linecap="round"><g transform="translate(305.24728071643347 104.04539822327828) rotate(0 -100.54361213333877 -0.40528504747993566)"><path d="M0 0 C-33.51 -0.14, -167.57 -0.68, -201.09 -0.81 M0 0 C-33.51 -0.14, -167.57 -0.68, -201.09 -0.81" stroke="#343a40" stroke-width="2" fill="none"></path></g><g transform="translate(305.24728071643347 104.04539822327828) rotate(0 -100.54361213333877 -0.40528504747993566)"><path d="M-177.56 -9.27 C-184.4 -6.81, -191.24 -4.35, -201.09 -0.81 M-177.56 -9.27 C-184.23 -6.87, -190.9 -4.47, -201.09 -0.81" stroke="#343a40" stroke-width="2" fill="none"></path></g><g transform="translate(305.24728071643347 104.04539822327828) rotate(0 -100.54361213333877 -0.40528504747993566)"><path d="M-177.63 7.83 C-184.45 5.32, -191.27 2.81, -201.09 -0.81 M-177.63 7.83 C-184.28 5.38, -190.93 2.93, -201.09 -0.81" stroke="#343a40" stroke-width="2" fill="none"></path></g></g><mask></mask><g transform="translate(171.52286752037304 20.392632262906005) rotate(0 25.520000457763672 12.5)"><text x="0" y="17.52" font-family="Virgil, Segoe UI Emoji" font-size="20px" fill="#343a40" text-anchor="start" style="white-space: pre;" direction="ltr" dominant-baseline="alphabetic">of_in</text></g><g transform="translate(167.67671367421912 107.31570918598297) rotate(0 35.53000259399414 12.5)"><text x="0" y="17.52" font-family="Virgil, Segoe UI Emoji" font-size="20px" fill="#343a40" text-anchor="start" style="white-space: pre;" direction="ltr" dominant-baseline="alphabetic">of_out</text></g></svg>