<svg version="1.1" xmlns="http://www.w3.org/2000/svg" viewBox="0 0 556 147.5" width="1112" height="295">
  <!-- svg-source:excalidraw -->
  
  <defs>
    <style class="style-fonts">
      @font-face {
        font-family: "Virgil";
        src: url("https://excalidraw.com/Virgil.woff2");
      }
      @font-face {
        font-family: "Cascadia";
        src: url("https://excalidraw.com/Cascadia.woff2");
      }
      @font-face {
        font-family: "Assistant";
        src: url("https://excalidraw.com/Assistant-Regular.woff2");
      }
    </style>
    
  </defs>
  <g stroke-linecap="round" transform="translate(10 10.5) rotate(0 55 63.5)"><path d="M27.5 0 C38.81 0.06, 54.74 -0.61, 82.5 0 C102.33 -0.7, 107.86 9.11, 110 27.5 C108.92 41.48, 114.09 55.28, 110 99.5 C110.48 116.99, 100.09 125.32, 82.5 127 C69.88 126.83, 53.56 124.43, 27.5 127 C7.03 124.18, -2.39 120.21, 0 99.5 C1.75 68.39, 0.74 41.53, 0 27.5 C-1.65 11.89, 12.74 -1.84, 27.5 0" stroke="none" stroke-width="0" fill="#ffc9c9"></path><path d="M27.5 0 C46.51 -1.55, 68.36 1.05, 82.5 0 M27.5 0 C48.32 -0.3, 70 -0.69, 82.5 0 M82.5 0 C99.6 -1.39, 110.18 7.25, 110 27.5 M82.5 0 C100.38 -1.83, 112.21 10.24, 110 27.5 M110 27.5 C109.8 55.79, 109.24 83.57, 110 99.5 M110 27.5 C109.68 52.31, 109.57 76.99, 110 99.5 M110 99.5 C109.48 118.18, 98.91 125.55, 82.5 127 M110 99.5 C111.73 120.08, 102.12 127.41, 82.5 127 M82.5 127 C66.98 127.3, 53.78 128.16, 27.5 127 M82.5 127 C65.72 127.32, 49.76 127.06, 27.5 127 M27.5 127 C7.52 128.44, -1.64 118.3, 0 99.5 M27.5 127 C8.03 125.08, -1.73 116.65, 0 99.5 M0 99.5 C-1.5 79.24, -1.32 62.97, 0 27.5 M0 99.5 C1.15 70.71, 0.17 42.77, 0 27.5 M0 27.5 C-1.9 10.86, 8.41 -0.46, 27.5 0 M0 27.5 C2.25 10.43, 8.74 -2.29, 27.5 0" stroke="#1e1e1e" stroke-width="1" fill="none"></path></g><g transform="translate(45.459999084472656 49) rotate(0 19.540000915527344 25)"><text x="19.540000915527344" y="17.52" font-family="Virgil, Segoe UI Emoji" font-size="20px" fill="#1e1e1e" text-anchor="middle" style="white-space: pre;" direction="ltr" dominant-baseline="alphabetic">Shim</text><text x="19.540000915527344" y="42.519999999999996" font-family="Virgil, Segoe UI Emoji" font-size="20px" fill="#1e1e1e" text-anchor="middle" style="white-space: pre;" direction="ltr" dominant-baseline="alphabetic">Tile</text></g><g stroke-linecap="round" transform="translate(220 10) rotate(0 55 63.5)"><path d="M27.5 0 C44.36 -1.44, 53.4 -2.82, 82.5 0 C98.78 -0.03, 108.52 11.93, 110 27.5 C112.52 44.55, 108.61 59.3, 110 99.5 C107.83 118.62, 104.17 123.91, 82.5 127 C72.99 129.04, 58.54 127.2, 27.5 127 C9.33 127.47, 3.39 120.04, 0 99.5 C0.84 73.49, -1 55.28, 0 27.5 C-2.77 10.98, 11.18 2.18, 27.5 0" stroke="none" stroke-width="0" fill="#a5d8ff"></path><path d="M27.5 0 C41.85 -0.97, 52.79 0.73, 82.5 0 M27.5 0 C48.1 1.18, 66.3 0.23, 82.5 0 M82.5 0 C100.56 1.38, 108.78 10.61, 110 27.5 M82.5 0 C101.87 2.28, 109.34 11.14, 110 27.5 M110 27.5 C111.46 45.6, 109.47 65.13, 110 99.5 M110 27.5 C109.46 54.11, 108.91 82.11, 110 99.5 M110 99.5 C111.73 117.33, 102.43 126.97, 82.5 127 M110 99.5 C110 116.18, 100.69 128.51, 82.5 127 M82.5 127 C64.63 127.15, 47.38 128.76, 27.5 127 M82.5 127 C65.4 126.71, 47.02 128.14, 27.5 127 M27.5 127 C10.46 127.58, 1.25 117.65, 0 99.5 M27.5 127 C7.54 126.7, -2.08 117.1, 0 99.5 M0 99.5 C-0.78 82.01, 2.08 68.53, 0 27.5 M0 99.5 C-1.12 80.28, -0.34 59.06, 0 27.5 M0 27.5 C1.35 7.84, 7.46 -1.17, 27.5 0 M0 27.5 C-1.22 10.39, 7.47 -1.17, 27.5 0" stroke="#1e1e1e" stroke-width="1" fill="none"></path></g><g transform="translate(255.54000091552734 48.5) rotate(0 19.459999084472656 25)"><text x="19.459999084472656" y="17.52" font-family="Virgil, Segoe UI Emoji" font-size="20px" fill="#1e1e1e" text-anchor="middle" style="white-space: pre;" direction="ltr" dominant-baseline="alphabetic">Mem</text><text x="19.459999084472656" y="42.519999999999996" font-family="Virgil, Segoe UI Emoji" font-size="20px" fill="#1e1e1e" text-anchor="middle" style="white-space: pre;" direction="ltr" dominant-baseline="alphabetic">Tile</text></g><g stroke-linecap="round" transform="translate(436 10) rotate(0 55 63.5)"><path d="M27.5 0 C39.18 2.64, 52.41 -3.9, 82.5 0 C99.93 1.25, 109.8 9.34, 110 27.5 C110.55 51.44, 112.69 79.21, 110 99.5 C112.81 114.63, 102.73 123.63, 82.5 127 C68.57 128.87, 62.74 127.27, 27.5 127 C7.93 126.93, -1.79 114.34, 0 99.5 C-0.21 70.48, 4.51 45.54, 0 27.5 C-0.81 5.71, 11.04 0.61, 27.5 0" stroke="none" stroke-width="0" fill="#ffec99"></path><path d="M27.5 0 C41.48 0.51, 57.47 1.41, 82.5 0 M27.5 0 C42.36 1.26, 55.92 -0.55, 82.5 0 M82.5 0 C99.85 0.79, 111.18 10.08, 110 27.5 M82.5 0 C100.4 -0.13, 110.1 9.47, 110 27.5 M110 27.5 C112.44 54, 111.63 82.77, 110 99.5 M110 27.5 C110.98 50.25, 111.08 70.92, 110 99.5 M110 99.5 C111.54 117.36, 100.97 126.34, 82.5 127 M110 99.5 C110.37 115.96, 102.2 126.87, 82.5 127 M82.5 127 C64.97 125.98, 46.91 128.37, 27.5 127 M82.5 127 C62.33 127.16, 44.38 127.29, 27.5 127 M27.5 127 C9.12 127.66, -0.12 119.06, 0 99.5 M27.5 127 C11.07 126.01, -0.75 116.38, 0 99.5 M0 99.5 C-1.46 85.77, -0.83 69.58, 0 27.5 M0 99.5 C0.58 73.89, -0.11 46.31, 0 27.5 M0 27.5 C-1.51 10.69, 7.63 -0.32, 27.5 0 M0 27.5 C1.58 8.19, 11.32 2.03, 27.5 0" stroke="#1e1e1e" stroke-width="1" fill="none"></path></g><g transform="translate(450.95999908447266 48.5) rotate(0 40.040000915527344 25)"><text x="40.040000915527344" y="17.52" font-family="Virgil, Segoe UI Emoji" font-size="20px" fill="#1e1e1e" text-anchor="middle" style="white-space: pre;" direction="ltr" dominant-baseline="alphabetic">Compute</text><text x="40.040000915527344" y="42.519999999999996" font-family="Virgil, Segoe UI Emoji" font-size="20px" fill="#1e1e1e" text-anchor="middle" style="white-space: pre;" direction="ltr" dominant-baseline="alphabetic">Tile</text></g><g stroke-linecap="round"><g transform="translate(120 43.5) rotate(0 49.5 0)"><path d="M0 0 C16.5 0, 82.5 0, 99 0 M0 0 C16.5 0, 82.5 0, 99 0" stroke="#868e96" stroke-width="2" fill="none"></path></g><g transform="translate(120 43.5) rotate(0 49.5 0)"><path d="M75.51 8.55 C81.59 6.34, 87.67 4.12, 99 0 M75.51 8.55 C80.41 6.77, 85.31 4.98, 99 0" stroke="#868e96" stroke-width="2" fill="none"></path></g><g transform="translate(120 43.5) rotate(0 49.5 0)"><path d="M75.51 -8.55 C81.59 -6.34, 87.67 -4.12, 99 0 M75.51 -8.55 C80.41 -6.77, 85.31 -4.98, 99 0" stroke="#868e96" stroke-width="2" fill="none"></path></g></g><mask></mask><g stroke-linecap="round"><g transform="translate(332 48.64221055487235) rotate(0 51 -0.24344205601323665)"><path d="M0 0 C17 -0.08, 85 -0.41, 102 -0.49 M0 0 C17 -0.08, 85 -0.41, 102 -0.49" stroke="#868e96" stroke-width="2" fill="none"></path></g><g transform="translate(332 48.64221055487235) rotate(0 51 -0.24344205601323665)"><path d="M78.55 8.18 C86.67 5.18, 94.78 2.18, 102 -0.49 M78.55 8.18 C83.27 6.43, 87.98 4.69, 102 -0.49" stroke="#868e96" stroke-width="2" fill="none"></path></g><g transform="translate(332 48.64221055487235) rotate(0 51 -0.24344205601323665)"><path d="M78.47 -8.93 C86.61 -6, 94.76 -3.08, 102 -0.49 M78.47 -8.93 C83.2 -7.23, 87.93 -5.53, 102 -0.49" stroke="#868e96" stroke-width="2" fill="none"></path></g></g><mask></mask><g stroke-linecap="round"><g transform="translate(435 95.92857142857144) rotate(0 -51.5 0)"><path d="M0 0 C-17.17 0, -85.83 0, -103 0 M0 0 C-17.17 0, -85.83 0, -103 0" stroke="#868e96" stroke-width="2" fill="none"></path></g><g transform="translate(435 95.92857142857144) rotate(0 -51.5 0)"><path d="M-79.51 -8.55 C-87.21 -5.75, -94.91 -2.95, -103 0 M-79.51 -8.55 C-87.68 -5.58, -95.86 -2.6, -103 0" stroke="#868e96" stroke-width="2" fill="none"></path></g><g transform="translate(435 95.92857142857144) rotate(0 -51.5 0)"><path d="M-79.51 8.55 C-87.21 5.75, -94.91 2.95, -103 0 M-79.51 8.55 C-87.68 5.58, -95.86 2.6, -103 0" stroke="#868e96" stroke-width="2" fill="none"></path></g></g><mask></mask><g stroke-linecap="round"><g transform="translate(219 94.5) rotate(0 -50.5 0)"><path d="M0 0 C-16.83 0, -84.17 0, -101 0 M0 0 C-16.83 0, -84.17 0, -101 0" stroke="#868e96" stroke-width="2" fill="none"></path></g><g transform="translate(219 94.5) rotate(0 -50.5 0)"><path d="M-77.51 -8.55 C-86.42 -5.31, -95.33 -2.06, -101 0 M-77.51 -8.55 C-82.59 -6.7, -87.68 -4.85, -101 0" stroke="#868e96" stroke-width="2" fill="none"></path></g><g transform="translate(219 94.5) rotate(0 -50.5 0)"><path d="M-77.51 8.55 C-86.42 5.31, -95.33 2.06, -101 0 M-77.51 8.55 C-82.59 6.7, -87.68 4.85, -101 0" stroke="#868e96" stroke-width="2" fill="none"></path></g></g><mask></mask><g transform="translate(136 15.5) rotate(0 25.520000457763672 12.5)"><text x="0" y="17.52" font-family="Virgil, Segoe UI Emoji" font-size="20px" fill="#868e96" text-anchor="start" style="white-space: pre;" direction="ltr" dominant-baseline="alphabetic">of_in</text></g><g transform="translate(135.47999954223633 101) rotate(0 35.53000259399414 12.5)"><text x="0" y="17.52" font-family="Virgil, Segoe UI Emoji" font-size="20px" fill="#868e96" text-anchor="start" style="white-space: pre;" direction="ltr" dominant-baseline="alphabetic">of_out</text></g><g transform="translate(347.4799995422363 26) rotate(0 32.400001525878906 12.5)"><text x="0" y="17.52" font-family="Virgil, Segoe UI Emoji" font-size="20px" fill="#868e96" text-anchor="start" style="white-space: pre;" direction="ltr" dominant-baseline="alphabetic">of_in0</text></g><g transform="translate(344.3414290291922 94.14285714285717) rotate(0 42.410003662109375 12.5)"><text x="0" y="17.52" font-family="Virgil, Segoe UI Emoji" font-size="20px" fill="#868e96" text-anchor="start" style="white-space: pre;" direction="ltr" dominant-baseline="alphabetic">of_out0</text></g></svg>