<svg version="1.1" xmlns="http://www.w3.org/2000/svg" viewBox="0 0 538.8571428571429 149.5" width="1077.7142857142858" height="299">
  <!-- svg-source:excalidraw -->
  
  <defs>
    <style class="style-fonts">
      @font-face {
        font-family: "Virgil";
        src: url("https://excalidraw.com/Virgil.woff2");
      }
      @font-face {
        font-family: "Cascadia";
        src: url("https://excalidraw.com/Cascadia.woff2");
      }
      @font-face {
        font-family: "Assistant";
        src: url("https://excalidraw.com/Assistant-Regular.woff2");
      }
    </style>
    
  </defs>
  <g stroke-linecap="round" transform="translate(196 44) rotate(0 73.5 33)"><path d="M16.5 0 C42.43 0.47, 72.97 -0.21, 130.5 0 C143 -0.7, 144.86 5.44, 147 16.5 C145.33 22.29, 150.51 27.89, 147 49.5 C147.48 59.66, 140.76 64.32, 130.5 66 C103.09 65.67, 71.98 63.28, 16.5 66 C3.36 63.18, -2.39 62.88, 0 49.5 C1.73 33.37, 0.72 21.5, 0 16.5 C-1.65 8.22, 9.07 -1.84, 16.5 0" stroke="none" stroke-width="0" fill="#ced4da"></path><path d="M16.5 0 C57.03 -1.28, 100.4 1.32, 130.5 0 M16.5 0 C59.85 -0.47, 104.05 -0.86, 130.5 0 M130.5 0 C140.27 -1.39, 147.18 3.58, 147 16.5 M130.5 0 C141.05 -1.83, 149.21 6.57, 147 16.5 M147 16.5 C146.43 29.35, 145.87 41.69, 147 49.5 M147 16.5 C146.37 27.73, 146.26 38.83, 147 49.5 M147 49.5 C146.48 60.85, 139.58 64.55, 130.5 66 M147 49.5 C148.73 62.75, 142.79 66.41, 130.5 66 M130.5 66 C99.39 66.53, 70.62 67.39, 16.5 66 M130.5 66 C95.74 66.7, 61.81 66.45, 16.5 66 M16.5 66 C3.85 67.44, -1.64 60.96, 0 49.5 M16.5 66 C4.36 64.08, -1.73 59.31, 0 49.5 M0 49.5 C-1.7 39.27, -1.53 33.02, 0 16.5 M0 49.5 C0.79 35.92, -0.19 23.19, 0 16.5 M0 16.5 C-1.9 7.19, 4.75 -0.46, 16.5 0 M0 16.5 C2.25 6.77, 5.08 -2.29, 16.5 0" stroke="#1e1e1e" stroke-width="1" fill="none"></path></g><g stroke-linecap="round" transform="translate(10 12.5) rotate(0 55 63.5)"><path d="M27.5 0 C39.18 2.64, 52.41 -3.9, 82.5 0 C99.93 1.25, 109.8 9.34, 110 27.5 C110.55 51.44, 112.69 79.21, 110 99.5 C112.81 114.63, 102.73 123.63, 82.5 127 C68.57 128.87, 62.74 127.27, 27.5 127 C7.93 126.93, -1.79 114.34, 0 99.5 C-0.21 70.48, 4.51 45.54, 0 27.5 C-0.81 5.71, 11.04 0.61, 27.5 0" stroke="none" stroke-width="0" fill="#ffec99"></path><path d="M27.5 0 C41.48 0.51, 57.47 1.41, 82.5 0 M27.5 0 C42.36 1.26, 55.92 -0.55, 82.5 0 M82.5 0 C99.85 0.79, 111.18 10.08, 110 27.5 M82.5 0 C100.4 -0.13, 110.1 9.47, 110 27.5 M110 27.5 C112.44 54, 111.63 82.77, 110 99.5 M110 27.5 C110.98 50.25, 111.08 70.92, 110 99.5 M110 99.5 C111.54 117.36, 100.97 126.34, 82.5 127 M110 99.5 C110.37 115.96, 102.2 126.87, 82.5 127 M82.5 127 C64.97 125.98, 46.91 128.37, 27.5 127 M82.5 127 C62.33 127.16, 44.38 127.29, 27.5 127 M27.5 127 C9.12 127.66, -0.12 119.06, 0 99.5 M27.5 127 C11.07 126.01, -0.75 116.38, 0 99.5 M0 99.5 C-1.46 85.77, -0.83 69.58, 0 27.5 M0 99.5 C0.58 73.89, -0.11 46.31, 0 27.5 M0 27.5 C-1.51 10.69, 7.63 -0.32, 27.5 0 M0 27.5 C1.58 8.19, 11.32 2.03, 27.5 0" stroke="#1e1e1e" stroke-width="1" fill="none"></path></g><g transform="translate(24.959999084472656 51) rotate(0 40.040000915527344 25)"><text x="40.040000915527344" y="17.52" font-family="Virgil, Segoe UI Emoji" font-size="20px" fill="#1e1e1e" text-anchor="middle" style="white-space: pre;" direction="ltr" dominant-baseline="alphabetic">Compute</text><text x="40.040000915527344" y="42.519999999999996" font-family="Virgil, Segoe UI Emoji" font-size="20px" fill="#1e1e1e" text-anchor="middle" style="white-space: pre;" direction="ltr" dominant-baseline="alphabetic">Tile 2</text></g><g stroke-linecap="round"><g transform="translate(122.00000000000011 77.90910058259391) rotate(0 33.99999999999994 -0.049332514803865024)"><path d="M0 0 C11.33 -0.02, 56.67 -0.08, 68 -0.1 M0 0 C11.33 -0.02, 56.67 -0.08, 68 -0.1" stroke="#868e96" stroke-width="2" fill="none"></path></g><g transform="translate(122.00000000000011 77.90910058259391) rotate(0 33.99999999999994 -0.049332514803865024)"><path d="M44.52 8.49 C50.6 6.26, 56.67 4.04, 68 -0.1 M44.52 8.49 C49.42 6.7, 54.31 4.91, 68 -0.1" stroke="#868e96" stroke-width="2" fill="none"></path></g><g transform="translate(122.00000000000011 77.90910058259391) rotate(0 33.99999999999994 -0.049332514803865024)"><path d="M44.5 -8.62 C50.58 -6.41, 56.66 -4.21, 68 -0.1 M44.5 -8.62 C49.4 -6.84, 54.3 -5.06, 68 -0.1" stroke="#868e96" stroke-width="2" fill="none"></path></g></g><mask></mask><g transform="translate(242 10) rotate(0 25.520000457763672 12.5)"><text x="0" y="17.52" font-family="Virgil, Segoe UI Emoji" font-size="20px" fill="#868e96" text-anchor="start" style="white-space: pre;" direction="ltr" dominant-baseline="alphabetic">of_in</text></g><g stroke-linecap="round" transform="translate(418.8571428571429 12.21428571428578) rotate(0 55 63.5)"><path d="M27.5 0 C40.34 0.26, 48.8 -3.46, 82.5 0 C98.47 -1.23, 109.63 9.83, 110 27.5 C107.33 39.66, 107.01 59.41, 110 99.5 C112.76 116.19, 97.56 125.11, 82.5 127 C63.86 125.99, 49.96 123.33, 27.5 127 C10.63 123.59, 2.02 116.64, 0 99.5 C1.3 77.16, 0.39 47.38, 0 27.5 C2.03 10.14, 6.32 1.44, 27.5 0" stroke="none" stroke-width="0" fill="#ffec99"></path><path d="M27.5 0 C39.46 -1.21, 54.28 1.31, 82.5 0 M27.5 0 C42.76 0.58, 56.3 0.61, 82.5 0 M82.5 0 C99.95 0.52, 109.41 10.38, 110 27.5 M82.5 0 C101.44 1.21, 109.73 7.73, 110 27.5 M110 27.5 C108.36 43.94, 108.26 55.25, 110 99.5 M110 27.5 C108.81 50.25, 108.98 71.04, 110 99.5 M110 99.5 C110.76 118.82, 98.89 126.36, 82.5 127 M110 99.5 C108.61 116.47, 102.05 128.99, 82.5 127 M82.5 127 C64.81 125.79, 43.56 128.34, 27.5 127 M82.5 127 C64.12 126.13, 43.42 126.75, 27.5 127 M27.5 127 C11.06 127.94, -0.54 116.36, 0 99.5 M27.5 127 C7.73 126.55, 0.98 116.74, 0 99.5 M0 99.5 C-1.01 72.42, -0.14 43.67, 0 27.5 M0 99.5 C0.89 77.44, 1.02 52.71, 0 27.5 M0 27.5 C1.84 10.67, 10.91 -0.24, 27.5 0 M0 27.5 C-0.67 8.4, 8.14 -1.84, 27.5 0" stroke="#1e1e1e" stroke-width="1" fill="none"></path></g><g transform="translate(433.81714194161555 50.71428571428578) rotate(0 40.040000915527344 25)"><text x="40.040000915527344" y="17.52" font-family="Virgil, Segoe UI Emoji" font-size="20px" fill="#1e1e1e" text-anchor="middle" style="white-space: pre;" direction="ltr" dominant-baseline="alphabetic">Compute</text><text x="40.040000915527344" y="42.519999999999996" font-family="Virgil, Segoe UI Emoji" font-size="20px" fill="#1e1e1e" text-anchor="middle" style="white-space: pre;" direction="ltr" dominant-baseline="alphabetic">Tile 3</text></g><g stroke-linecap="round"><g transform="translate(346.3571428571429 76.76243389043543) rotate(0 33 -0.04837831033995599)"><path d="M0 0 C11 -0.02, 55 -0.08, 66 -0.1 M0 0 C11 -0.02, 55 -0.08, 66 -0.1" stroke="#868e96" stroke-width="2" fill="none"></path></g><g transform="translate(346.3571428571429 76.76243389043543) rotate(0 33 -0.04837831033995599)"><path d="M42.52 8.49 C50.52 5.56, 58.52 2.64, 66 -0.1 M42.52 8.49 C51.65 5.15, 60.77 1.81, 66 -0.1" stroke="#868e96" stroke-width="2" fill="none"></path></g><g transform="translate(346.3571428571429 76.76243389043543) rotate(0 33 -0.04837831033995599)"><path d="M42.5 -8.61 C50.5 -5.71, 58.51 -2.81, 66 -0.1 M42.5 -8.61 C51.63 -5.3, 60.77 -1.99, 66 -0.1" stroke="#868e96" stroke-width="2" fill="none"></path></g></g><mask></mask><g stroke-linecap="round" transform="translate(230.3571428571429 61.71428571428578) rotate(0 39 17.5)"><path d="M8.75 0 C23.34 1.32, 42.87 2.46, 69.25 0 C71.97 -1.43, 78.46 0.34, 78 8.75 C76.75 11.56, 76.18 21.63, 78 26.25 C74.46 33.69, 73.37 37.76, 69.25 35 C55.85 36.37, 41.47 34.45, 8.75 35 C-0.4 36.05, -0.99 29.76, 0 26.25 C-2.39 23.28, -1.99 14.88, 0 8.75 C-1.83 3.12, 6.21 2.58, 8.75 0" stroke="none" stroke-width="0" fill="#868e96"></path><path d="M8.75 0 C27.9 -1.33, 46 -1.29, 69.25 0 M8.75 0 C30.66 -1.13, 53.3 -0.76, 69.25 0 M69.25 0 C76.84 1.15, 77.41 3.76, 78 8.75 M69.25 0 C73.1 -0.55, 78.75 4.37, 78 8.75 M78 8.75 C79.25 13.61, 78.94 21.12, 78 26.25 M78 8.75 C78.09 13.63, 78.38 17.74, 78 26.25 M78 26.25 C79.4 33.49, 75.23 34.21, 69.25 35 M78 26.25 C78.16 33.59, 74.38 34.45, 69.25 35 M69.25 35 C47.24 35.08, 26.38 34.89, 8.75 35 M69.25 35 C46.26 35.25, 23.43 35.68, 8.75 35 M8.75 35 C2.67 36.77, 1.93 33.87, 0 26.25 M8.75 35 C2.18 33.33, 2.28 30.3, 0 26.25 M0 26.25 C-1.26 23.29, -0.86 18.11, 0 8.75 M0 26.25 C0.4 20.94, -0.7 15.91, 0 8.75 M0 8.75 C-1.05 4.09, 4.02 -1.07, 8.75 0 M0 8.75 C-1.62 0.64, 2.28 0.21, 8.75 0" stroke="#1e1e1e" stroke-width="1" fill="none"></path></g></svg>