<svg version="1.1" xmlns="http://www.w3.org/2000/svg" viewBox="0 0 682 346.6428571428571" width="1364" height="693.2857142857142">
  <!-- svg-source:excalidraw -->
  
  <defs>
    <style class="style-fonts">
      @font-face {
        font-family: "Virgil";
        src: url("https://excalidraw.com/Virgil.woff2");
      }
      @font-face {
        font-family: "Cascadia";
        src: url("https://excalidraw.com/Cascadia.woff2");
      }
      @font-face {
        font-family: "Assistant";
        src: url("https://excalidraw.com/Assistant-Regular.woff2");
      }
    </style>
    
  </defs>
  <g stroke-linecap="round" transform="translate(10 65.5) rotate(0 55 63.5)"><path d="M27.5 0 C38.81 0.06, 54.74 -0.61, 82.5 0 C102.33 -0.7, 107.86 9.11, 110 27.5 C108.92 41.48, 114.09 55.28, 110 99.5 C110.48 116.99, 100.09 125.32, 82.5 127 C69.88 126.83, 53.56 124.43, 27.5 127 C7.03 124.18, -2.39 120.21, 0 99.5 C1.75 68.39, 0.74 41.53, 0 27.5 C-1.65 11.89, 12.74 -1.84, 27.5 0" stroke="none" stroke-width="0" fill="#b2f2bb"></path><path d="M27.5 0 C46.51 -1.55, 68.36 1.05, 82.5 0 M27.5 0 C48.32 -0.3, 70 -0.69, 82.5 0 M82.5 0 C99.6 -1.39, 110.18 7.25, 110 27.5 M82.5 0 C100.38 -1.83, 112.21 10.24, 110 27.5 M110 27.5 C109.8 55.79, 109.24 83.57, 110 99.5 M110 27.5 C109.68 52.31, 109.57 76.99, 110 99.5 M110 99.5 C109.48 118.18, 98.91 125.55, 82.5 127 M110 99.5 C111.73 120.08, 102.12 127.41, 82.5 127 M82.5 127 C66.98 127.3, 53.78 128.16, 27.5 127 M82.5 127 C65.72 127.32, 49.76 127.06, 27.5 127 M27.5 127 C7.52 128.44, -1.64 118.3, 0 99.5 M27.5 127 C8.03 125.08, -1.73 116.65, 0 99.5 M0 99.5 C-1.5 79.24, -1.32 62.97, 0 27.5 M0 99.5 C1.15 70.71, 0.17 42.77, 0 27.5 M0 27.5 C-1.9 10.86, 8.41 -0.46, 27.5 0 M0 27.5 C2.25 10.43, 8.74 -2.29, 27.5 0" stroke="#343a40" stroke-width="1" fill="none"></path></g><g transform="translate(46.670000076293945 104) rotate(0 18.329999923706055 25)"><text x="18.329999923706055" y="17.52" font-family="Virgil, Segoe UI Emoji" font-size="20px" fill="#343a40" text-anchor="middle" style="white-space: pre;" direction="ltr" dominant-baseline="alphabetic">Tile</text><text x="18.329999923706055" y="42.519999999999996" font-family="Virgil, Segoe UI Emoji" font-size="20px" fill="#343a40" text-anchor="middle" style="white-space: pre;" direction="ltr" dominant-baseline="alphabetic">A</text></g><g stroke-linecap="round" transform="translate(224 70) rotate(0 55 63.5)"><path d="M27.5 0 C39.18 2.64, 52.41 -3.9, 82.5 0 C99.93 1.25, 109.8 9.34, 110 27.5 C110.55 51.44, 112.69 79.21, 110 99.5 C112.81 114.63, 102.73 123.63, 82.5 127 C68.57 128.87, 62.74 127.27, 27.5 127 C7.93 126.93, -1.79 114.34, 0 99.5 C-0.21 70.48, 4.51 45.54, 0 27.5 C-0.81 5.71, 11.04 0.61, 27.5 0" stroke="none" stroke-width="0" fill="#b2f2bb"></path><path d="M27.5 0 C41.48 0.51, 57.47 1.41, 82.5 0 M27.5 0 C42.36 1.26, 55.92 -0.55, 82.5 0 M82.5 0 C99.85 0.79, 111.18 10.08, 110 27.5 M82.5 0 C100.4 -0.13, 110.1 9.47, 110 27.5 M110 27.5 C112.44 54, 111.63 82.77, 110 99.5 M110 27.5 C110.98 50.25, 111.08 70.92, 110 99.5 M110 99.5 C111.54 117.36, 100.97 126.34, 82.5 127 M110 99.5 C110.37 115.96, 102.2 126.87, 82.5 127 M82.5 127 C64.97 125.98, 46.91 128.37, 27.5 127 M82.5 127 C62.33 127.16, 44.38 127.29, 27.5 127 M27.5 127 C9.12 127.66, -0.12 119.06, 0 99.5 M27.5 127 C11.07 126.01, -0.75 116.38, 0 99.5 M0 99.5 C-1.46 85.77, -0.83 69.58, 0 27.5 M0 99.5 C0.58 73.89, -0.11 46.31, 0 27.5 M0 27.5 C-1.51 10.69, 7.63 -0.32, 27.5 0 M0 27.5 C1.58 8.19, 11.32 2.03, 27.5 0" stroke="#343a40" stroke-width="1" fill="none"></path></g><g transform="translate(260.67000007629395 108.5) rotate(0 18.329999923706055 25)"><text x="18.329999923706055" y="17.52" font-family="Virgil, Segoe UI Emoji" font-size="20px" fill="#343a40" text-anchor="middle" style="white-space: pre;" direction="ltr" dominant-baseline="alphabetic">Tile</text><text x="18.329999923706055" y="42.519999999999996" font-family="Virgil, Segoe UI Emoji" font-size="20px" fill="#343a40" text-anchor="middle" style="white-space: pre;" direction="ltr" dominant-baseline="alphabetic">B</text></g><g stroke-linecap="round"><g transform="translate(121.00000000000011 115.50646804287055) rotate(0 50.49999999999994 0.4960798256492751)"><path d="M0 0 C16.83 0.17, 84.17 0.83, 101 0.99 M0 0 C16.83 0.17, 84.17 0.83, 101 0.99" stroke="#868e96" stroke-width="2" fill="none"></path></g><g transform="translate(121.00000000000011 115.50646804287055) rotate(0 50.49999999999994 0.4960798256492751)"><path d="M77.42 9.31 C86.37 6.16, 95.31 3, 101 0.99 M77.42 9.31 C82.53 7.51, 87.63 5.71, 101 0.99" stroke="#868e96" stroke-width="2" fill="none"></path></g><g transform="translate(121.00000000000011 115.50646804287055) rotate(0 50.49999999999994 0.4960798256492751)"><path d="M77.59 -7.79 C86.47 -4.46, 95.35 -1.13, 101 0.99 M77.59 -7.79 C82.66 -5.89, 87.73 -3.99, 101 0.99" stroke="#868e96" stroke-width="2" fill="none"></path></g></g><mask></mask><g transform="translate(251.47999954223633 10) rotate(0 17.279998779296875 12.5)"><text x="0" y="17.52" font-family="Virgil, Segoe UI Emoji" font-size="20px" fill="#868e96" text-anchor="start" style="white-space: pre;" direction="ltr" dominant-baseline="alphabetic">of0</text></g><g stroke-linecap="round"><g transform="translate(369 40.5) rotate(0 0.5 34.571428571428584)"><path d="M0 0 C0.17 11.52, 0.83 57.62, 1 69.14 M0 0 C0.17 11.52, 0.83 57.62, 1 69.14" stroke="#868e96" stroke-width="2" fill="none"></path></g></g><mask></mask><g transform="translate(365.73285348074774 140.1428571428571) rotate(0 13.109999656677246 12.5)"><text x="0" y="17.52" font-family="Virgil, Segoe UI Emoji" font-size="20px" fill="#fd7e14" text-anchor="start" style="white-space: pre;" direction="ltr" dominant-baseline="alphabetic">of1</text></g><g stroke-linecap="round"><g transform="translate(368.8571428571429 40.642857142857224) rotate(0 -98.71428571428567 0)"><path d="M0 0 C-32.9 0, -164.52 0, -197.43 0 M0 0 C-32.9 0, -164.52 0, -197.43 0" stroke="#868e96" stroke-width="2" fill="none"></path></g></g><mask></mask><g stroke-linecap="round"><g transform="translate(170.4999999999999 114.14285714285722) rotate(0 0 -37.14285714285711)"><path d="M0 0 C0 -12.38, 0 -61.9, 0 -74.29 M0 0 C0 -12.38, 0 -61.9, 0 -74.29" stroke="#868e96" stroke-width="2" fill="none"></path></g></g><mask></mask><g stroke-linecap="round" transform="translate(429 67.64285714285711) rotate(0 55 63.5)"><path d="M27.5 0 C46.76 -3.07, 62.42 -0.59, 82.5 0 C100.95 -1.37, 111.17 6.11, 110 27.5 C109.88 55.28, 110.79 84.63, 110 99.5 C113.39 114.56, 101.85 130.34, 82.5 127 C68.43 127.47, 50.56 126.33, 27.5 127 C7.88 126.12, -3.46 114.33, 0 99.5 C2.47 73.87, -1.95 53.28, 0 27.5 C-1.73 9.34, 11.43 2.09, 27.5 0" stroke="none" stroke-width="0" fill="#b2f2bb"></path><path d="M27.5 0 C48.34 -1.55, 67.44 0.64, 82.5 0 M27.5 0 C45.76 -0.35, 66.27 0.06, 82.5 0 M82.5 0 C102.75 1.86, 110.59 8.04, 110 27.5 M82.5 0 C102.4 0.14, 112.27 7.19, 110 27.5 M110 27.5 C111.2 54.75, 111.59 82.92, 110 99.5 M110 27.5 C109.15 45.37, 109.16 64.02, 110 99.5 M110 99.5 C108.38 116.06, 99.92 128.23, 82.5 127 M110 99.5 C110.26 115.69, 101.88 128.99, 82.5 127 M82.5 127 C72.28 126.19, 59.17 125.06, 27.5 127 M82.5 127 C60.74 127.69, 39.03 126.61, 27.5 127 M27.5 127 C8.82 126.15, -0.37 118.68, 0 99.5 M27.5 127 C7.18 128.61, 0.24 118.45, 0 99.5 M0 99.5 C0.54 82.27, 1.86 65.78, 0 27.5 M0 99.5 C-0.78 81.27, -0.12 61.7, 0 27.5 M0 27.5 C-0.7 10.42, 7.86 -0.81, 27.5 0 M0 27.5 C-1.27 10.51, 9.47 -1.55, 27.5 0" stroke="#343a40" stroke-width="1" fill="none"></path></g><g transform="translate(465.67000007629395 106.14285714285711) rotate(0 18.329999923706055 25)"><text x="18.329999923706055" y="17.52" font-family="Virgil, Segoe UI Emoji" font-size="20px" fill="#343a40" text-anchor="middle" style="white-space: pre;" direction="ltr" dominant-baseline="alphabetic">Tile</text><text x="18.329999923706055" y="42.519999999999996" font-family="Virgil, Segoe UI Emoji" font-size="20px" fill="#343a40" text-anchor="middle" style="white-space: pre;" direction="ltr" dominant-baseline="alphabetic">C</text></g><g stroke-linecap="round"><g transform="translate(369 111.64285714285711) rotate(0 29.5 -0.1862364020556413)"><path d="M0 0 C9.83 -0.06, 49.17 -0.31, 59 -0.37 M0 0 C9.83 -0.06, 49.17 -0.31, 59 -0.37" stroke="#868e96" stroke-width="2" fill="none"></path></g><g transform="translate(369 111.64285714285711) rotate(0 29.5 -0.1862364020556413)"><path d="M35.56 8.33 C43.8 5.27, 52.03 2.21, 59 -0.37 M35.56 8.33 C43.71 5.3, 51.86 2.28, 59 -0.37" stroke="#868e96" stroke-width="2" fill="none"></path></g><g transform="translate(369 111.64285714285711) rotate(0 29.5 -0.1862364020556413)"><path d="M35.45 -8.77 C43.73 -5.82, 52 -2.87, 59 -0.37 M35.45 -8.77 C43.64 -5.85, 51.83 -2.93, 59 -0.37" stroke="#868e96" stroke-width="2" fill="none"></path></g></g><mask></mask><g stroke-linecap="round"><g transform="translate(335 138.6449213568489) rotate(0 46.5 0.4869270789007203)"><path d="M0 0 C15.5 0.16, 77.5 0.81, 93 0.97 M0 0 C15.5 0.16, 77.5 0.81, 93 0.97" stroke="#fd7e14" stroke-width="2" fill="none"></path></g><g transform="translate(335 138.6449213568489) rotate(0 46.5 0.4869270789007203)"><path d="M69.42 9.28 C74.44 7.51, 79.47 5.74, 93 0.97 M69.42 9.28 C78.63 6.04, 87.84 2.79, 93 0.97" stroke="#fd7e14" stroke-width="2" fill="none"></path></g><g transform="translate(335 138.6449213568489) rotate(0 46.5 0.4869270789007203)"><path d="M69.6 -7.82 C74.58 -5.95, 79.57 -4.07, 93 0.97 M69.6 -7.82 C78.74 -4.39, 87.88 -0.95, 93 0.97" stroke="#fd7e14" stroke-width="2" fill="none"></path></g></g><mask></mask><g stroke-linecap="round" transform="translate(225 212.6428571428571) rotate(0 52 38.5)"><path d="M19.25 0 C42.47 -1.22, 66.86 1.28, 84.75 0 C97.78 3.26, 104.75 4.16, 104 19.25 C100.53 29.53, 106.17 36.98, 104 57.75 C102.45 70.87, 96.07 76.6, 84.75 77 C57.57 80.81, 35.49 75.96, 19.25 77 C4.79 76.95, -0.84 71.17, 0 57.75 C-2.16 42.68, 0.27 30.94, 0 19.25 C1.18 6.06, 5.81 2.75, 19.25 0" stroke="none" stroke-width="0" fill="#e9ecef"></path><path d="M19.25 0 C40.01 0.79, 61.57 -1.54, 84.75 0 M19.25 0 C38.53 0.21, 56.75 -0.01, 84.75 0 M84.75 0 C98.29 -1.69, 102.26 8.31, 104 19.25 M84.75 0 C98.7 -2.28, 103.51 4.62, 104 19.25 M104 19.25 C105.47 27.73, 104.08 39.85, 104 57.75 M104 19.25 C102.83 28.88, 104.35 40.92, 104 57.75 M104 57.75 C102.9 71.19, 95.71 78.06, 84.75 77 M104 57.75 C103.64 70.11, 99.05 77.5, 84.75 77 M84.75 77 C67.86 78.07, 48.68 75.31, 19.25 77 M84.75 77 C69.76 76.6, 56.15 76.61, 19.25 77 M19.25 77 C7.95 78.57, 0.14 69.31, 0 57.75 M19.25 77 C6.4 75.73, 2.25 72.47, 0 57.75 M0 57.75 C1.5 46.97, 0.7 33.85, 0 19.25 M0 57.75 C-1.13 48.8, -0.73 39.61, 0 19.25 M0 19.25 C-1.82 5.45, 7.78 -1.07, 19.25 0 M0 19.25 C-1.72 5.44, 6.24 -0.75, 19.25 0" stroke="#343a40" stroke-width="1" fill="none"></path></g><g stroke-linecap="round" transform="translate(241 236.6428571428571) rotate(0 36 15.5)"><path d="M7.75 0 C19.85 -0.38, 33.21 -2.68, 64.25 0 C71.69 -0.03, 71.82 3.77, 72 7.75 C72.41 11.85, 72.13 14.89, 72 23.25 C75.56 31.27, 69.56 34.24, 64.25 31 C45.55 32.26, 27.77 33.57, 7.75 31 C2.67 28.13, 1.62 27.15, 0 23.25 C-0.63 16.85, -2.61 9.72, 0 7.75 C0.12 4.96, 0.03 -2.68, 7.75 0" stroke="none" stroke-width="0" fill="#868e96"></path><path d="M7.75 0 C17.78 0.41, 30.87 -1.04, 64.25 0 M7.75 0 C28 0.58, 49.47 -0.68, 64.25 0 M64.25 0 C69.08 -0.08, 73.72 3.21, 72 7.75 M64.25 0 C70.69 -2.14, 70.6 3.68, 72 7.75 M72 7.75 C71.17 12.28, 71.11 14.21, 72 23.25 M72 7.75 C72.23 11.4, 72.61 14.63, 72 23.25 M72 23.25 C71.86 30.1, 70.03 30.64, 64.25 31 M72 23.25 C70.43 28.9, 68.1 31.64, 64.25 31 M64.25 31 C41.95 30.22, 24.53 33.13, 7.75 31 M64.25 31 C44.79 31.17, 24.91 30.58, 7.75 31 M7.75 31 C2.43 31.87, 1.93 27.9, 0 23.25 M7.75 31 C1.57 29.11, -0.99 28.72, 0 23.25 M0 23.25 C-1.24 18.45, -0.36 14.34, 0 7.75 M0 23.25 C0.14 19.21, -0.38 15.53, 0 7.75 M0 7.75 C1.74 3.11, 4.07 -0.74, 7.75 0 M0 7.75 C1.19 3.94, 2.26 -0.59, 7.75 0" stroke="#343a40" stroke-width="1" fill="none"></path></g><g stroke-linecap="round" transform="translate(431 212.6428571428571) rotate(0 52 62)"><path d="M26 0 C43.88 -2.07, 58.78 2.4, 78 0 C94.63 0.93, 104.22 9.93, 104 26 C105.5 40.51, 106.85 56.48, 104 98 C101.93 117.09, 94.62 122.89, 78 124 C64.75 125.21, 53.42 126.06, 26 124 C6.72 122.32, -0.66 115.17, 0 98 C-0.51 79.95, -3.64 58.06, 0 26 C-1.55 6.87, 7.02 0.4, 26 0" stroke="none" stroke-width="0" fill="#e9ecef"></path><path d="M26 0 C42.18 1.65, 59.75 1.27, 78 0 M26 0 C42.28 0.14, 57.76 -1.05, 78 0 M78 0 C93.92 -1.73, 105.96 7.78, 104 26 M78 0 C96.86 0.6, 103.68 6.83, 104 26 M104 26 C105.16 49.5, 105.25 73.27, 104 98 M104 26 C104 52.49, 103.95 77.44, 104 98 M104 98 C104.49 115.69, 95.56 124.92, 78 124 M104 98 C105.61 113.19, 96.92 122.86, 78 124 M78 124 C68.12 125.3, 54.24 123.38, 26 124 M78 124 C60.48 124.8, 40.68 124.78, 26 124 M26 124 C8.76 125.46, -1.52 117.26, 0 98 M26 124 C7.08 123.31, 0.48 113.98, 0 98 M0 98 C-0.67 78, 0.36 61.09, 0 26 M0 98 C0.68 76.47, -0.51 56.11, 0 26 M0 26 C-0.68 8.02, 7.2 -0.27, 26 0 M0 26 C-1.47 7.19, 9.29 -0.03, 26 0" stroke="#343a40" stroke-width="1" fill="none"></path></g><g stroke-linecap="round" transform="translate(447 236.6428571428571) rotate(0 36 15.5)"><path d="M7.75 0 C21.31 2.81, 38.03 1.59, 64.25 0 C69.63 1.26, 68.76 6.03, 72 7.75 C73.27 13.26, 70.42 19.73, 72 23.25 C71.28 27.3, 68.15 28.15, 64.25 31 C54.94 34.4, 37.77 29.88, 7.75 31 C1.92 30.84, -0.56 30.45, 0 23.25 C-2.27 20.39, -1.22 14.55, 0 7.75 C-1.64 2.98, -0.94 -3.46, 7.75 0" stroke="none" stroke-width="0" fill="#868e96"></path><path d="M7.75 0 C23.81 0.84, 42.7 -0.9, 64.25 0 M7.75 0 C30.34 -0.92, 51.4 -1.22, 64.25 0 M64.25 0 C71.38 -0.89, 73.33 3.1, 72 7.75 M64.25 0 C69.09 -1.84, 72.54 3.43, 72 7.75 M72 7.75 C72.83 13.66, 72.92 18.42, 72 23.25 M72 7.75 C72.01 11.64, 72.2 15.17, 72 23.25 M72 23.25 C72.23 29.34, 70.81 29.14, 64.25 31 M72 23.25 C73.59 27.27, 67.63 29.93, 64.25 31 M64.25 31 C48.26 30.93, 34.63 31.76, 7.75 31 M64.25 31 C42.34 31.58, 21.21 31.94, 7.75 31 M7.75 31 C1.07 32.92, -1.38 27.82, 0 23.25 M7.75 31 C3.06 29.65, -0.86 28.52, 0 23.25 M0 23.25 C0.35 19.59, -0.09 14.25, 0 7.75 M0 23.25 C-0.57 19.75, -0.35 16.02, 0 7.75 M0 7.75 C-1.47 2.31, 1.3 -1.29, 7.75 0 M0 7.75 C0.63 2.55, 3.36 -1.64, 7.75 0" stroke="#343a40" stroke-width="1" fill="none"></path></g><g stroke-linecap="round" transform="translate(568 212.6428571428571) rotate(0 52 38.5)"><path d="M19.25 0 C43.21 -1.82, 70.81 0.27, 84.75 0 C96.51 -2.86, 101.43 6.99, 104 19.25 C104.4 32.25, 100.91 40.62, 104 57.75 C104.86 67.47, 99.23 79.46, 84.75 77 C60.3 79.8, 41.07 76.45, 19.25 77 C3.39 77.47, 0.44 73.42, 0 57.75 C-0.57 52.24, -0.38 39.75, 0 19.25 C-0.81 3.35, 8.01 -0.43, 19.25 0" stroke="none" stroke-width="0" fill="#ffd8a8"></path><path d="M19.25 0 C43.24 0.32, 67.66 -1.05, 84.75 0 M19.25 0 C44.57 -0.38, 67.38 0.99, 84.75 0 M84.75 0 C98.58 -1.11, 104.76 4.94, 104 19.25 M84.75 0 C98.64 -1.09, 105.73 7.73, 104 19.25 M104 19.25 C104 27.36, 106.01 38.81, 104 57.75 M104 19.25 C103.28 34.89, 104.8 48.99, 104 57.75 M104 57.75 C103.17 69.66, 97.68 75.89, 84.75 77 M104 57.75 C105.96 71.74, 98.16 78.86, 84.75 77 M84.75 77 C60.81 77.14, 36.04 76.4, 19.25 77 M84.75 77 C64.75 76.03, 42.46 77.11, 19.25 77 M19.25 77 C4.86 77.85, -1.39 68.63, 0 57.75 M19.25 77 C5.44 77.99, -0.14 69.72, 0 57.75 M0 57.75 C1.58 48.2, 0.85 34.16, 0 19.25 M0 57.75 C-0.51 46.58, 0.02 34.48, 0 19.25 M0 19.25 C1.4 6.95, 7.51 -0.14, 19.25 0 M0 19.25 C1.4 6.57, 8.36 1.41, 19.25 0" stroke="#1e1e1e" stroke-width="1" fill="none"></path></g><g stroke-linecap="round" transform="translate(584 236.6428571428571) rotate(0 36 15.5)"><path d="M7.75 0 C24.94 0.9, 42.16 -2.4, 64.25 0 C66.84 0.57, 71.63 -0.84, 72 7.75 C70.2 11.2, 72.75 13.68, 72 23.25 C73.64 30.88, 70.78 28.97, 64.25 31 C47.65 31.19, 26.9 32.25, 7.75 31 C3.02 33.84, -3.28 31.55, 0 23.25 C0.17 18.3, -0.63 13.95, 0 7.75 C1.59 2.16, 4.55 0.52, 7.75 0" stroke="none" stroke-width="0" fill="#fd7e14"></path><path d="M7.75 0 C26.48 -0.84, 50.33 -0.72, 64.25 0 M7.75 0 C22.64 1.14, 39.51 -0.26, 64.25 0 M64.25 0 C70.18 -1.47, 72.92 1.64, 72 7.75 M64.25 0 C71.14 1.31, 70.54 4.11, 72 7.75 M72 7.75 C73.34 12.17, 73.31 14.21, 72 23.25 M72 7.75 C72.58 12.87, 71.58 17.56, 72 23.25 M72 23.25 C72.09 27.31, 71.12 32, 64.25 31 M72 23.25 C72.58 30.27, 71.31 30.29, 64.25 31 M64.25 31 C53.61 31.17, 40.55 32.11, 7.75 31 M64.25 31 C48.54 30.91, 33.41 31, 7.75 31 M7.75 31 C1.19 29.05, -0.85 29.28, 0 23.25 M7.75 31 C2.45 30.14, -0.35 26.3, 0 23.25 M0 23.25 C0.29 15.86, -0.04 11.81, 0 7.75 M0 23.25 C0.21 17.27, 0.59 11.35, 0 7.75 M0 7.75 C1.09 2.44, 3.8 0.13, 7.75 0 M0 7.75 C1.95 3.99, 4.83 0.64, 7.75 0" stroke="#343a40" stroke-width="1" fill="none"></path></g><g stroke-linecap="round" transform="translate(448 282.6428571428571) rotate(0 36 15.5)"><path d="M7.75 0 C29.45 -2.71, 45.78 -0.66, 64.25 0 C69.89 -3.01, 72.16 4.12, 72 7.75 C71.92 13.81, 74.72 17.42, 72 23.25 C72.52 27.66, 72.91 34.21, 64.25 31 C50.12 34.46, 36.9 32.43, 7.75 31 C6.03 30.37, -2.55 26.16, 0 23.25 C1.76 19.15, -2.46 18.12, 0 7.75 C0.17 2.53, 3.17 -1.32, 7.75 0" stroke="none" stroke-width="0" fill="#868e96"></path><path d="M7.75 0 C20.03 -1.59, 30.79 1.86, 64.25 0 M7.75 0 C25.4 -0.84, 42.27 -0.1, 64.25 0 M64.25 0 C68.12 1.48, 73.85 1.89, 72 7.75 M64.25 0 C67.51 1.7, 70.85 3.17, 72 7.75 M72 7.75 C72.38 12.62, 73.12 18.07, 72 23.25 M72 7.75 C71.44 11.92, 72.75 17.29, 72 23.25 M72 23.25 C73.65 28.68, 69.44 32.24, 64.25 31 M72 23.25 C71.94 26.9, 71.69 29.67, 64.25 31 M64.25 31 C44.23 31.04, 18.96 30.68, 7.75 31 M64.25 31 C42.11 30.91, 22.01 31.58, 7.75 31 M7.75 31 C1.53 30.25, -1.07 28.82, 0 23.25 M7.75 31 C3.33 30.2, -1.6 26.99, 0 23.25 M0 23.25 C-1.53 16.72, 0.73 11.8, 0 7.75 M0 23.25 C0.49 18.94, -0.33 15.54, 0 7.75 M0 7.75 C-0.62 4.26, 2.17 1.5, 7.75 0 M0 7.75 C2.07 0.8, 3.29 0.8, 7.75 0" stroke="#343a40" stroke-width="1" fill="none"></path></g></svg>